
<!-- Generator: visioncortex VTracer 0.6.4 -->
<svg version="1.1" xmlns="http://www.w3.org/2000/svg" viewBox="0 0 554 557" preserveAspectRatio="xMidYMid meet">
<path d="M0 0 C2.598 2.332 5.157 4.703 7.702 7.092 C9.834 9.073 11.996 10.953 14.233 12.811 C25.565 22.711 35.016 34.486 43.892 46.572 C45.222 48.376 46.575 50.159 47.937 51.939 C79.078 93.267 98.309 149.266 98.562 200.975 C98.569 201.939 98.576 202.904 98.583 203.897 C98.6 206.994 98.607 210.089 98.608 213.186 C98.609 214.771 98.609 214.771 98.61 216.388 C98.595 231.658 98.278 246.525 95.358 261.561 C95.181 262.506 95.005 263.452 94.822 264.426 C81.691 333.236 44.426 395.307 -11.642 437.561 C-12.19 437.977 -12.739 438.393 -13.304 438.821 C-28.319 450.132 -44.632 459.595 -61.642 467.561 C-62.829 468.13 -64.016 468.7 -65.239 469.287 C-84.302 478.193 -104.996 484.598 -125.642 488.561 C-126.615 488.755 -127.588 488.95 -128.59 489.15 C-198.18 502.524 -273.35 486.607 -332.087 447.361 C-343.741 439.389 -354.692 430.69 -364.985 421.029 C-367.117 419.048 -369.28 417.168 -371.517 415.311 C-382.848 405.41 -392.299 393.635 -401.175 381.549 C-402.505 379.746 -403.858 377.962 -405.22 376.182 C-436.361 334.854 -455.592 278.855 -455.845 227.146 C-455.852 226.182 -455.859 225.217 -455.866 224.224 C-455.883 221.128 -455.89 218.032 -455.892 214.936 C-455.892 213.879 -455.893 212.822 -455.894 211.733 C-455.878 196.463 -455.562 181.596 -452.642 166.561 C-452.465 165.615 -452.288 164.669 -452.105 163.695 C-438.974 94.885 -401.71 32.814 -345.642 -9.439 C-344.819 -10.064 -344.819 -10.064 -343.979 -10.7 C-328.964 -22.011 -312.651 -31.474 -295.642 -39.439 C-294.454 -40.009 -293.267 -40.579 -292.044 -41.166 C-272.982 -50.072 -252.287 -56.477 -231.642 -60.439 C-230.669 -60.634 -229.695 -60.829 -228.693 -61.029 C-149.08 -76.329 -61.063 -53.544 0 0 Z " fill="#7ED9D1" transform="translate(455.6416015625,64.439453125)"/>
<path d="M0 0 C0.66 0 1.32 0 2 0 C2.33 0.66 2.66 1.32 3 2 C5.816 2.469 5.816 2.469 9.062 2.625 C10.72 2.737 10.72 2.737 12.41 2.852 C13.265 2.901 14.119 2.95 15 3 C15 5.31 15 7.62 15 10 C16.32 10 17.64 10 19 10 C19 10.99 19 11.98 19 13 C19.99 13 20.98 13 22 13 C22 12.01 22 11.02 22 10 C24.31 10 26.62 10 29 10 C29 11.98 29 13.96 29 16 C31.31 16 33.62 16 36 16 C36 17.32 36 18.64 36 20 C37.98 20 39.96 20 42 20 C42 22.31 42 24.62 42 27 C42.66 27 43.32 27 44 27 C44 27.99 44 28.98 44 30 C47.96 30 51.92 30 56 30 C56 30.66 56 31.32 56 32 C57.578 31.969 57.578 31.969 59.188 31.938 C62.327 31.989 64.969 32.265 68 33 C68.495 36.465 68.495 36.465 69 40 C69.66 40 70.32 40 71 40 C71 40.99 71 41.98 71 43 C72.65 43 74.3 43 76 43 C76 44.32 76 45.64 76 47 C78.31 47 80.62 47 83 47 C83 47.99 83 48.98 83 50 C87.29 50 91.58 50 96 50 C96 51.65 96 53.3 96 55 C96.66 55 97.32 55 98 55 C98.33 52.03 98.66 49.06 99 46 C99.33 46 99.66 46 100 46 C100.056 47.597 100.056 47.597 100.113 49.227 C101.003 70.477 106.331 89.373 120 106 C120.687 106.88 121.374 107.761 122.082 108.668 C124.166 111.202 126.418 112.984 129 115 C129.846 115.866 130.691 116.733 131.562 117.625 C133.752 119.758 135.297 120.738 138 122 C138.63 122.694 138.63 122.694 139.273 123.402 C141.495 125.458 143.694 126.311 146.5 127.438 C147.566 127.865 148.632 128.293 149.73 128.734 C158.824 132.266 158.824 132.266 168.125 135.188 C171 136 171 136 172 137 C174.02 137.072 176.042 137.084 178.062 137.062 C180.022 137.042 181.981 137.021 184 137 C184 130.73 184 124.46 184 118 C182.309 117.587 180.618 117.175 178.875 116.75 C177.233 116.33 177.233 116.33 175.559 115.902 C173.203 115.305 170.841 114.734 168.473 114.191 C159.774 112.029 153.921 108.6 147 103 C145.756 102.179 144.507 101.365 143.25 100.562 C136.061 95.415 130.993 86.737 127 79 C127 77 127 77 129 74.875 C129.66 74.256 130.32 73.637 131 73 C132.32 73.66 133.64 74.32 135 75 C135 75.66 135 76.32 135 77 C135.66 77 136.32 77 137 77 C137 77.99 137 78.98 137 80 C136.01 80.33 135.02 80.66 134 81 C138.29 81 142.58 81 147 81 C147 82.32 147 83.64 147 85 C147.99 84.67 148.98 84.34 150 84 C152.333 83.96 154.667 83.956 157 84 C157 84.66 157 85.32 157 86 C158.65 86 160.3 86 162 86 C162 87.32 162 88.64 162 90 C162.66 90 163.32 90 164 90 C164 91.32 164 92.64 164 94 C164.99 94 165.98 94 167 94 C167 94.99 167 95.98 167 97 C168.32 97 169.64 97 171 97 C171.33 99.31 171.66 101.62 172 104 C173.65 104 175.3 104 177 104 C177 103.34 177 102.68 177 102 C179.64 102 182.28 102 185 102 C185.103 100.948 185.206 99.896 185.312 98.812 C186.052 92.777 187.57 86.902 189 81 C189.33 81 189.66 81 190 81 C190.025 81.958 190.05 82.916 190.076 83.902 C190.171 87.488 190.271 91.074 190.372 94.66 C190.415 96.206 190.457 97.751 190.497 99.297 C190.556 101.532 190.619 103.766 190.684 106 C190.709 107.021 190.709 107.021 190.734 108.062 C190.794 110.043 190.897 112.021 191 114 C191.022 114.705 191.044 115.41 191.067 116.137 C191.304 119.709 191.612 121.603 194.147 124.2 C197.537 126.339 199.459 126.514 203.443 126.546 C204.724 126.566 206.005 126.585 207.324 126.606 C208.712 126.607 210.1 126.609 211.488 126.609 C212.916 126.624 214.344 126.641 215.772 126.659 C219.518 126.703 223.264 126.723 227.011 126.738 C230.839 126.758 234.667 126.8 238.494 126.84 C245.996 126.915 253.498 126.965 261 127 C261 127.33 261 127.66 261 128 C243.675 128.495 243.675 128.495 226 129 C226 129.33 226 129.66 226 130 C243.16 130.33 260.32 130.66 278 131 C278 131.33 278 131.66 278 132 C276.979 132.006 275.959 132.012 274.907 132.018 C265.298 132.075 255.69 132.148 246.081 132.236 C241.141 132.28 236.201 132.32 231.26 132.346 C226.495 132.372 221.729 132.413 216.964 132.463 C215.143 132.48 213.323 132.491 211.503 132.498 C208.958 132.507 206.413 132.535 203.868 132.568 C202.734 132.565 202.734 132.565 201.577 132.563 C197.54 132.585 197.54 132.585 194.133 134.527 C193.759 135.013 193.385 135.499 193 136 C192.34 136 191.68 136 191 136 C191.069 142.069 191.157 148.138 191.262 154.207 C191.296 156.272 191.324 158.337 191.346 160.402 C191.38 163.369 191.432 166.335 191.488 169.301 C191.498 170.688 191.498 170.688 191.508 172.104 C191.527 172.965 191.547 173.825 191.568 174.712 C191.579 175.469 191.59 176.227 191.601 177.007 C192.106 179.528 193.026 180.401 195 182 C197.811 183.405 200.132 183.123 203.277 183.12 C203.928 183.121 204.579 183.122 205.249 183.123 C207.441 183.124 209.632 183.119 211.823 183.114 C213.39 183.113 214.956 183.113 216.523 183.114 C220.785 183.114 225.047 183.108 229.31 183.101 C233.76 183.095 238.211 183.095 242.662 183.093 C251.095 183.09 259.527 183.082 267.96 183.072 C277.558 183.061 287.157 183.055 296.755 183.05 C316.503 183.04 336.252 183.022 356 183 C355.67 183.66 355.34 184.32 355 185 C339.16 185.495 339.16 185.495 323 186 C323.99 186.33 324.98 186.66 326 187 C326 187.99 326 188.98 326 190 C323.69 190 321.38 190 319 190 C319 190.66 319 191.32 319 192 C320.209 191.977 321.418 191.954 322.664 191.93 C332.593 191.798 342.239 191.904 352 194 C353 195 353 195 353.098 197.504 C353.08 199.018 353.08 199.018 353.062 200.562 C353.053 201.574 353.044 202.586 353.035 203.629 C353.018 204.803 353.018 204.803 353 206 C354.98 206 356.96 206 359 206 C359 206.99 359 207.98 359 209 C359.66 209 360.32 209 361 209 C361 208.01 361 207.02 361 206 C362.65 206 364.3 206 366 206 C366 207.98 366 209.96 366 212 C368.31 212 370.62 212 373 212 C373 213.32 373 214.64 373 216 C373.99 215.67 374.98 215.34 376 215 C376.33 214.34 376.66 213.68 377 213 C377.66 213 378.32 213 379 213 C379.33 214.65 379.66 216.3 380 218 C381.98 218.33 383.96 218.66 386 219 C386 219.99 386 220.98 386 222 C388.31 222 390.62 222 393 222 C393 223.32 393 224.64 393 226 C395.31 226 397.62 226 400 226 C400 228.31 400 230.62 400 233 C402.31 233 404.62 233 407 233 C407 233.99 407 234.98 407 236 C407.804 235.938 408.609 235.876 409.438 235.812 C413.976 236.051 417.769 237.42 422 239 C422 240.32 422 241.64 422 243 C423.65 243 425.3 243 427 243 C427 243.99 427 244.98 427 246 C430.3 246 433.6 246 437 246 C437 246.99 437 247.98 437 249 C437.99 249 438.98 249 440 249 C440 250.32 440 251.64 440 253 C442.31 253 444.62 253 447 253 C447.33 254.98 447.66 256.96 448 259 C449.98 259.33 451.96 259.66 454 260 C454.383 262.672 454.383 262.672 454 266 C451.972 268.083 450.212 269.592 447.875 271.25 C446.921 271.959 446.921 271.959 445.948 272.682 C444.621 273.662 443.288 274.634 441.949 275.596 C440.167 276.88 438.409 278.189 436.656 279.512 C422.156 290.32 406.361 299.338 390 307 C388.813 307.57 387.626 308.14 386.402 308.727 C367.34 317.632 346.645 324.038 326 328 C325.027 328.195 324.054 328.389 323.051 328.59 C253.462 341.964 178.292 326.047 119.555 286.8 C107.901 278.828 96.949 270.13 86.656 260.469 C84.525 258.487 82.362 256.608 80.125 254.75 C68.793 244.85 59.343 233.074 50.467 220.989 C49.136 219.185 47.784 217.401 46.422 215.621 C15.281 174.295 -3.952 118.294 -4.203 66.586 C-4.21 65.621 -4.217 64.655 -4.224 63.661 C-4.241 60.565 -4.247 57.47 -4.25 54.375 C-4.252 53.324 -4.254 52.273 -4.256 51.19 C-4.263 35.913 -3.757 21.065 -1 6 C-0.803 4.815 -0.606 3.631 -0.402 2.41 C-0.203 1.217 -0.203 1.217 0 0 Z " fill="#356AB5" transform="translate(4,225)"/>
<path d="M0 0 C2.551 1.975 4.995 4.025 7.418 6.156 C8.561 7.156 8.561 7.156 9.727 8.176 C19.947 17.723 30.441 33.126 32.168 47.219 C32.464 49.37 32.464 49.37 33.418 51.156 C35.728 52.526 38.004 53.266 40.562 54.078 C45.833 56.068 50.045 59.673 54.418 63.156 C55.176 63.76 55.934 64.363 56.715 64.984 C62.21 69.57 67.734 74.631 68.418 82.156 C70.068 82.156 71.718 82.156 73.418 82.156 C86.08 104.376 90.676 127.744 85.418 153.156 C84.797 154.84 84.145 156.515 83.418 158.156 C82.758 158.156 82.098 158.156 81.418 158.156 C81.381 158.771 81.343 159.386 81.305 160.02 C81.206 161.232 81.206 161.232 81.105 162.469 C81.047 163.269 80.989 164.07 80.93 164.895 C80.321 167.583 79.389 168.303 77.418 170.156 C76.432 172.187 76.432 172.187 75.73 174.344 C75.479 175.059 75.228 175.775 74.969 176.512 C74.787 177.054 74.605 177.597 74.418 178.156 C73.758 177.826 73.098 177.496 72.418 177.156 C68.128 182.312 64.366 187.105 61.418 193.156 C60.428 193.486 59.438 193.816 58.418 194.156 C58.418 195.146 58.418 196.136 58.418 197.156 C57.849 197.448 57.281 197.739 56.695 198.039 C52.786 200.114 49.279 202.117 46.043 205.156 C34.746 215.238 17.95 217.563 3.418 218.156 C3.418 211.226 3.418 204.296 3.418 197.156 C8.368 196.166 8.368 196.166 13.418 195.156 C13.418 195.486 13.418 195.816 13.418 196.156 C19.38 195.896 22.925 195.392 27.418 191.156 C28.729 190.447 30.056 189.762 31.418 189.156 C30.098 188.826 28.778 188.496 27.418 188.156 C27.418 188.816 27.418 189.476 27.418 190.156 C24.23 191.75 20.789 191.258 17.293 191.219 C16.539 191.214 15.785 191.21 15.008 191.205 C13.144 191.193 11.281 191.175 9.418 191.156 C9.418 189.176 9.418 187.196 9.418 185.156 C7.438 185.156 5.458 185.156 3.418 185.156 C3.418 184.496 3.418 183.836 3.418 183.156 C2.428 183.156 1.438 183.156 0.418 183.156 C-0.242 180.846 -0.902 178.536 -1.582 176.156 C-1.586 176.887 -1.59 177.619 -1.594 178.372 C-1.627 181.697 -1.698 185.02 -1.77 188.344 C-1.778 190.069 -1.778 190.069 -1.787 191.83 C-1.831 193.498 -1.831 193.498 -1.875 195.199 C-1.891 196.22 -1.906 197.242 -1.923 198.294 C-2.828 202.222 -4.488 203.618 -7.582 206.156 C-10.696 206.771 -10.696 206.771 -14.258 206.758 C-15.244 206.764 -15.244 206.764 -16.25 206.77 C-18.447 206.779 -20.641 206.751 -22.837 206.724 C-24.414 206.722 -25.991 206.723 -27.568 206.726 C-31.845 206.728 -36.121 206.698 -40.398 206.663 C-44.869 206.632 -49.34 206.629 -53.811 206.623 C-62.275 206.608 -70.739 206.567 -79.203 206.516 C-88.84 206.46 -98.478 206.433 -108.115 206.408 C-127.937 206.356 -147.76 206.268 -167.582 206.156 C-167.912 205.166 -168.242 204.176 -168.582 203.156 C-169.572 202.826 -170.562 202.496 -171.582 202.156 C-172.67 194.84 -172.907 187.543 -173.145 180.156 C-173.188 178.905 -173.231 177.653 -173.275 176.363 C-173.381 173.294 -173.482 170.225 -173.582 167.156 C-174.902 172.106 -176.222 177.056 -177.582 182.156 C-180.222 182.156 -182.862 182.156 -185.582 182.156 C-185.582 182.816 -185.582 183.476 -185.582 184.156 C-187.232 184.156 -188.882 184.156 -190.582 184.156 C-191.077 180.691 -191.077 180.691 -191.582 177.156 C-192.902 177.156 -194.222 177.156 -195.582 177.156 C-195.582 176.166 -195.582 175.176 -195.582 174.156 C-196.572 174.156 -197.562 174.156 -198.582 174.156 C-198.582 172.836 -198.582 171.516 -198.582 170.156 C-199.242 170.156 -199.902 170.156 -200.582 170.156 C-200.582 169.496 -200.582 168.836 -200.582 168.156 C-202.232 168.156 -203.882 168.156 -205.582 168.156 C-205.582 166.836 -205.582 165.516 -205.582 164.156 C-208.882 164.486 -212.182 164.816 -215.582 165.156 C-215.582 163.836 -215.582 162.516 -215.582 161.156 C-220.202 161.486 -224.822 161.816 -229.582 162.156 C-229.252 161.496 -228.922 160.836 -228.582 160.156 C-227.592 160.156 -226.602 160.156 -225.582 160.156 C-225.582 159.166 -225.582 158.176 -225.582 157.156 C-226.242 157.156 -226.902 157.156 -227.582 157.156 C-228.242 156.166 -228.902 155.176 -229.582 154.156 C-230.242 154.156 -230.902 154.156 -231.582 154.156 C-232.242 155.146 -232.902 156.136 -233.582 157.156 C-234.242 157.156 -234.902 157.156 -235.582 157.156 C-234.193 159.535 -232.796 161.909 -231.395 164.281 C-231.007 164.946 -230.62 165.612 -230.221 166.297 C-226.38 172.773 -222.397 177.9 -216.145 182.281 C-215.238 182.923 -214.332 183.565 -213.398 184.227 C-212.469 184.863 -211.54 185.5 -210.582 186.156 C-209.614 186.854 -208.646 187.551 -207.648 188.27 C-204.416 190.259 -201.617 191.247 -197.957 192.219 C-196.138 192.71 -196.138 192.71 -194.281 193.211 C-189.8 194.356 -185.314 195.479 -180.812 196.543 C-178.582 197.156 -178.582 197.156 -177.582 198.156 C-177.483 199.56 -177.451 200.968 -177.449 202.375 C-177.448 203.224 -177.447 204.074 -177.445 204.949 C-177.449 205.843 -177.453 206.736 -177.457 207.656 C-177.453 208.55 -177.449 209.443 -177.445 210.363 C-177.447 211.213 -177.448 212.062 -177.449 212.938 C-177.45 213.722 -177.451 214.506 -177.453 215.314 C-177.582 217.156 -177.582 217.156 -178.582 218.156 C-180.537 218.282 -182.498 218.332 -184.457 218.344 C-185.527 218.358 -186.597 218.372 -187.699 218.387 C-190.582 218.156 -190.582 218.156 -193.582 216.156 C-195.236 215.673 -196.905 215.241 -198.582 214.844 C-203.687 213.515 -208.244 211.627 -212.992 209.352 C-215.37 208.254 -217.729 207.37 -220.207 206.531 C-221.321 206.077 -222.435 205.624 -223.582 205.156 C-223.912 204.166 -224.242 203.176 -224.582 202.156 C-226.573 201.464 -228.574 200.799 -230.582 200.156 C-232.457 198.656 -232.457 198.656 -233.582 197.156 C-233.582 196.496 -233.582 195.836 -233.582 195.156 C-234.572 194.826 -235.562 194.496 -236.582 194.156 C-236.582 193.496 -236.582 192.836 -236.582 192.156 C-237.14 191.95 -237.698 191.744 -238.273 191.531 C-241.425 189.654 -243.352 187.045 -245.52 184.156 C-245.962 183.571 -246.404 182.986 -246.86 182.383 C-250.425 177.564 -253.26 172.693 -255.582 167.156 C-256.243 165.611 -256.243 165.611 -256.918 164.035 C-261.261 153.379 -262.957 143.325 -262.895 131.844 C-262.893 130.849 -262.892 129.855 -262.891 128.83 C-262.788 120.952 -261.792 113.745 -259.582 106.156 C-258.922 106.156 -258.262 106.156 -257.582 106.156 C-257.479 105.228 -257.376 104.3 -257.27 103.344 C-256.521 99.875 -255.976 99.496 -253.582 97.156 C-252.594 95.397 -252.594 95.397 -251.828 93.469 C-251.531 92.77 -251.234 92.071 -250.928 91.352 C-250.478 90.265 -250.478 90.265 -250.02 89.156 C-249.417 87.718 -248.811 86.28 -248.203 84.844 C-247.939 84.208 -247.676 83.573 -247.404 82.918 C-246.582 81.156 -246.582 81.156 -244.582 78.156 C-243.922 78.156 -243.262 78.156 -242.582 78.156 C-242.396 77.476 -242.211 76.795 -242.02 76.094 C-239.972 71.91 -237.022 69.244 -233.582 66.156 C-232.956 65.588 -232.329 65.019 -231.684 64.434 C-228.183 61.49 -224.7 59.145 -220.555 57.219 C-219.84 56.885 -219.125 56.552 -218.388 56.209 C-216.963 55.562 -215.527 54.94 -214.078 54.348 C-210.161 52.59 -208.241 51.257 -206.684 47.164 C-206.29 45.836 -205.919 44.5 -205.582 43.156 C-205.234 42.021 -205.234 42.021 -204.879 40.863 C-204.698 40.238 -204.518 39.613 -204.332 38.969 C-201.812 31.329 -198.329 22.813 -191.582 18.156 C-191.314 17.393 -191.046 16.63 -190.77 15.844 C-189.268 12.445 -187.224 10.926 -184.371 8.625 C-182.402 7.063 -182.402 7.063 -180.145 4.656 C-168.057 -7.136 -152.351 -13.248 -135.582 -13.844 C-134.709 -13.879 -133.837 -13.915 -132.938 -13.952 C-106.124 -14.893 -106.124 -14.893 -99.781 -9.238 C-99.386 -8.778 -98.99 -8.318 -98.582 -7.844 C-97.592 -8.174 -96.602 -8.504 -95.582 -8.844 C-94.84 -8.349 -94.097 -7.854 -93.332 -7.344 C-90.426 -5.759 -88.984 -5.572 -85.77 -6.195 C-82.961 -7.028 -80.297 -8.121 -77.582 -9.219 C-52.312 -19.263 -22.212 -15.861 0 0 Z " fill="#5FDCE7" transform="translate(366.58203125,144.84375)"/>
<path d="M0 0 C0.33 0 0.66 0 1 0 C1.99 6.435 1.99 6.435 3 13 C3.99 13 4.98 13 6 13 C6 13.66 6 14.32 6 15 C7.98 15 9.96 15 12 15 C12 16.98 12 18.96 12 21 C17.94 20.67 23.88 20.34 30 20 C30 19.34 30 18.68 30 18 C31.65 18 33.3 18 35 18 C32.822 21.268 31.393 22.149 28 24 C27.072 24.557 26.144 25.114 25.188 25.688 C21.116 27.364 18.376 27.297 14 27 C13.67 26.67 13.34 26.34 13 26 C10.69 26.33 8.38 26.66 6 27 C6 33.93 6 40.86 6 48 C18.567 46.149 30.828 44.224 42.242 38.324 C45.402 36.807 46.725 36.94 50 38 C50 38.66 50 39.32 50 40 C53.3 40.33 56.6 40.66 60 41 C60 42.32 60 43.64 60 45 C60.99 45 61.98 45 63 45 C63 45.99 63 46.98 63 48 C66.3 48 69.6 48 73 48 C73 48.99 73 49.98 73 51 C73.598 51.144 74.196 51.289 74.812 51.438 C76.562 51.887 78.287 52.429 80 53 C80 54.65 80 56.3 80 58 C83.3 58 86.6 58 90 58 C90 59.32 90 60.64 90 62 C92.31 62.33 94.62 62.66 97 63 C97 63.66 97 64.32 97 65 C97.804 65.186 97.804 65.186 98.625 65.375 C101.464 66.122 104.222 67.053 107 68 C107 70.31 107 72.62 107 75 C109.31 75 111.62 75 114 75 C114 75.99 114 76.98 114 78 C114.908 77.959 115.815 77.918 116.75 77.875 C119.878 77.995 121.386 78.391 124 80 C124 80.66 124 81.32 124 82 C124.99 82 125.98 82 127 82 C127 82.99 127 83.98 127 85 C129.31 85 131.62 85 134 85 C134 86.32 134 87.64 134 89 C136.31 89.33 138.62 89.66 141 90 C141 90.66 141 91.32 141 92 C141.66 92 142.32 92 143 92 C143 92.66 143 93.32 143 94 C144.65 94 146.3 94 148 94 C148 95.32 148 96.64 148 98 C150.31 98.33 152.62 98.66 155 99 C153.471 104.646 150.683 109.124 147.562 114 C146.763 115.256 146.763 115.256 145.948 116.537 C141.438 123.521 136.536 130.074 131.247 136.481 C130.093 137.887 128.965 139.314 127.84 140.742 C118.08 153.037 107.15 165.011 95 175 C94.67 175 94.34 175 94 175 C94 173.35 94 171.7 94 170 C92.546 170.031 92.546 170.031 91.062 170.062 C88 170 88 170 87 169 C86.959 167 86.957 165 87 163 C84.69 163 82.38 163 80 163 C80 161.68 80 160.36 80 159 C79.01 159 78.02 159 77 159 C77 158.01 77 157.02 77 156 C73.7 156 70.4 156 67 156 C67 155.01 67 154.02 67 153 C65.35 153 63.7 153 62 153 C62 151.68 62 150.36 62 149 C60.237 148.814 60.237 148.814 58.438 148.625 C54.459 148.136 50.822 147.194 47 146 C47 145.01 47 144.02 47 143 C44.69 143 42.38 143 40 143 C40 140.69 40 138.38 40 136 C37.69 136 35.38 136 33 136 C33 134.68 33 133.36 33 132 C30.69 132 28.38 132 26 132 C26 131.01 26 130.02 26 129 C25.031 129.021 24.061 129.041 23.062 129.062 C20 129 20 129 19 128 C18.959 126.334 18.957 124.666 19 123 C18.34 123 17.68 123 17 123 C16.67 123.99 16.34 124.98 16 126 C15.01 126 14.02 126 13 126 C13 124.68 13 123.36 13 122 C10.69 122 8.38 122 6 122 C6 120.02 6 118.04 6 116 C4.35 116 2.7 116 1 116 C1 116.99 1 117.98 1 119 C0.34 119 -0.32 119 -1 119 C-1 118.01 -1 117.02 -1 116 C-2.98 116 -4.96 116 -7 116 C-7.33 112.37 -7.66 108.74 -8 105 C-18.993 103.153 -29.876 102.451 -41 102 C-41 101.34 -41 100.68 -41 100 C-38.69 100 -36.38 100 -34 100 C-34 99.01 -34 98.02 -34 97 C-37.3 96.67 -40.6 96.34 -44 96 C-44 95.67 -44 95.34 -44 95 C-26.675 94.505 -26.675 94.505 -9 94 C-13.639 94.016 -18.278 94.031 -23.057 94.048 C-38.364 94.097 -53.671 94.131 -68.978 94.155 C-78.261 94.171 -87.544 94.192 -96.827 94.226 C-104.917 94.256 -113.008 94.276 -121.098 94.282 C-125.383 94.286 -129.667 94.295 -133.951 94.317 C-137.984 94.338 -142.016 94.344 -146.049 94.339 C-147.528 94.34 -149.008 94.346 -150.488 94.358 C-152.509 94.373 -154.531 94.367 -156.552 94.361 C-157.683 94.364 -158.814 94.366 -159.98 94.369 C-163.382 93.953 -165.263 93.031 -168 91 C-169.708 87.583 -169.267 83.67 -169.352 79.906 C-169.375 79.004 -169.398 78.101 -169.422 77.172 C-169.469 75.262 -169.515 73.352 -169.558 71.442 C-169.625 68.512 -169.702 65.582 -169.781 62.652 C-169.826 60.799 -169.87 58.947 -169.914 57.094 C-169.938 56.214 -169.962 55.333 -169.986 54.426 C-170.115 48.23 -170.115 48.23 -169 46 C-168.34 46 -167.68 46 -167 46 C-166.67 45.01 -166.34 44.02 -166 43 C-163.101 41.55 -160.477 41.779 -157.242 41.684 C-156.579 41.663 -155.916 41.642 -155.233 41.621 C-153.114 41.555 -150.994 41.496 -148.875 41.438 C-147.439 41.394 -146.003 41.351 -144.566 41.307 C-141.044 41.2 -137.522 41.098 -134 41 C-136.97 40.67 -139.94 40.34 -143 40 C-143 39.67 -143 39.34 -143 39 C-138.545 38.505 -138.545 38.505 -134 38 C-143.57 37.67 -153.14 37.34 -163 37 C-163 36.67 -163 36.34 -163 36 C-162.189 35.999 -161.379 35.997 -160.544 35.996 C-140.831 35.959 -121.118 35.9 -101.405 35.816 C-91.872 35.776 -82.34 35.744 -72.807 35.729 C-64.499 35.716 -56.191 35.689 -47.884 35.645 C-43.484 35.623 -39.084 35.607 -34.684 35.608 C-30.544 35.609 -26.404 35.591 -22.264 35.559 C-20.743 35.55 -19.223 35.549 -17.702 35.554 C-15.627 35.561 -13.554 35.543 -11.479 35.519 C-10.318 35.515 -9.156 35.512 -7.96 35.508 C-4.356 34.889 -3.171 33.897 -1 31 C-0.358 27.621 -0.358 27.621 -0.391 23.828 C-0.374 23.146 -0.358 22.463 -0.341 21.76 C-0.292 19.59 -0.271 17.421 -0.25 15.25 C-0.222 13.775 -0.192 12.299 -0.16 10.824 C-0.086 7.216 -0.037 3.609 0 0 Z " fill="#4FAED6" transform="translate(364,315)"/>
<path d="M0 0 C0.495 1.485 0.495 1.485 1 3 C6.61 3 12.22 3 18 3 C18 7.62 18 12.24 18 17 C18.99 17 19.98 17 21 17 C21 14.69 21 12.38 21 10 C24.3 10 27.6 10 31 10 C31 12.31 31 14.62 31 17 C34.3 17 37.6 17 41 17 C41 19.97 41 22.94 41 26 C42.32 26 43.64 26 45 26 C45 27.32 45 28.64 45 30 C53.91 30 62.82 30 72 30 C72 32.64 72 35.28 72 38 C72.99 38 73.98 38 75 38 C75 39.98 75 41.96 75 44 C78.3 44 81.6 44 85 44 C85 44.99 85 45.98 85 47 C84.01 47 83.02 47 82 47 C82 47.66 82 48.32 82 49 C85.561 50.049 89.055 50.304 92.75 50.562 C94.812 50.707 96.875 50.851 99 51 C99 55.29 99 59.58 99 64 C99.99 64 100.98 64 102 64 C102 61.69 102 59.38 102 57 C105.3 57 108.6 57 112 57 C112.423 59.051 112.846 61.102 113.27 63.152 C113.631 64.067 113.631 64.067 114 65 C114.99 65.33 115.98 65.66 117 66 C116 69 116 69 114.405 70.011 C113.73 70.305 113.055 70.599 112.359 70.902 C111.618 71.236 110.877 71.569 110.113 71.912 C108.943 72.42 108.943 72.42 107.75 72.938 C101.68 75.594 96.32 77.96 92.188 83.375 C90.177 85.787 88.478 87.162 85.938 88.938 C82.294 91.559 80.845 93.871 79 98 C78.223 98.75 77.445 99.5 76.645 100.273 C69.897 107.231 66.47 117.07 64.898 126.477 C63.254 131.095 59.715 132.652 55.469 134.719 C54.509 135.148 54.509 135.148 53.53 135.587 C44.045 139.854 32.027 146.811 28 157 C27.34 157 26.68 157 26 157 C25.731 157.675 25.461 158.351 25.184 159.047 C24.793 160.021 24.402 160.996 24 162 C23.537 163.16 23.074 164.32 22.598 165.516 C22.087 166.761 21.575 168.006 21.062 169.25 C20.81 169.887 20.558 170.524 20.299 171.18 C19.615 172.823 18.814 174.417 18 176 C17.01 176.33 16.02 176.66 15 177 C14.198 178.874 14.198 178.874 13.812 181.062 C13.654 181.796 13.495 182.529 13.332 183.285 C13.222 183.851 13.113 184.417 13 185 C12.34 185 11.68 185 11 185 C10.867 186.083 10.734 187.166 10.598 188.281 C9.921 193.693 9.179 199.096 8.438 204.5 C8.299 205.513 8.16 206.526 8.018 207.57 C7.679 210.047 7.34 212.523 7 215 C6.01 214.67 5.02 214.34 4 214 C4 212.35 4 210.7 4 209 C-0.29 209 -4.58 209 -9 209 C-9 208.01 -9 207.02 -9 206 C-11.31 206 -13.62 206 -16 206 C-16 204.68 -16 203.36 -16 202 C-17.65 202 -19.3 202 -21 202 C-21 201.01 -21 200.02 -21 199 C-21.66 199 -22.32 199 -23 199 C-23.495 195.535 -23.495 195.535 -24 192 C-27.96 191.67 -31.92 191.34 -36 191 C-36 190.34 -36 189.68 -36 189 C-39.96 189 -43.92 189 -48 189 C-48 188.01 -48 187.02 -48 186 C-48.66 186 -49.32 186 -50 186 C-50 183.69 -50 181.38 -50 179 C-51.98 179 -53.96 179 -56 179 C-56 177.68 -56 176.36 -56 175 C-58.31 175 -60.62 175 -63 175 C-63 173.02 -63 171.04 -63 169 C-65.31 169 -67.62 169 -70 169 C-70 169.99 -70 170.98 -70 172 C-70.99 172 -71.98 172 -73 172 C-73 171.01 -73 170.02 -73 169 C-74.32 169 -75.64 169 -77 169 C-77 166.69 -77 164.38 -77 162 C-77.843 162.035 -78.686 162.07 -79.555 162.105 C-80.65 162.133 -81.746 162.16 -82.875 162.188 C-83.966 162.222 -85.056 162.257 -86.18 162.293 C-87.11 162.196 -88.041 162.1 -89 162 C-91.829 157.756 -90.871 154.865 -90 150 C-89.241 146.528 -88.333 143.11 -87.375 139.688 C-87.109 138.732 -86.843 137.776 -86.57 136.792 C-76.612 101.673 -60.574 67.774 -37.247 39.519 C-36.093 38.113 -34.965 36.686 -33.84 35.258 C-23.687 22.467 -12.257 10.773 0 0 Z M28 17 C28 17.99 28 18.98 28 20 C28.99 20 29.98 20 31 20 C31 19.01 31 18.02 31 17 C30.01 17 29.02 17 28 17 Z M72 44 C72 46.31 72 48.62 72 51 C72.99 51 73.98 51 75 51 C75 48.69 75 46.38 75 44 C74.01 44 73.02 44 72 44 Z " fill="#5FDCE7" transform="translate(96,66)"/>
<path d="M0 0 C2.551 1.975 4.995 4.025 7.418 6.156 C8.561 7.156 8.561 7.156 9.727 8.176 C19.947 17.723 30.441 33.126 32.168 47.219 C32.464 49.37 32.464 49.37 33.418 51.156 C35.728 52.526 38.004 53.266 40.562 54.078 C45.833 56.068 50.045 59.673 54.418 63.156 C55.176 63.76 55.934 64.363 56.715 64.984 C62.21 69.57 67.734 74.631 68.418 82.156 C70.068 82.156 71.718 82.156 73.418 82.156 C86.08 104.376 90.676 127.744 85.418 153.156 C84.797 154.84 84.145 156.515 83.418 158.156 C82.758 158.156 82.098 158.156 81.418 158.156 C81.381 158.771 81.343 159.386 81.305 160.02 C81.206 161.232 81.206 161.232 81.105 162.469 C81.047 163.269 80.989 164.07 80.93 164.895 C80.321 167.583 79.389 168.303 77.418 170.156 C76.432 172.187 76.432 172.187 75.73 174.344 C75.479 175.059 75.228 175.775 74.969 176.512 C74.787 177.054 74.605 177.597 74.418 178.156 C73.758 177.826 73.098 177.496 72.418 177.156 C68.128 182.312 64.366 187.105 61.418 193.156 C60.428 193.486 59.438 193.816 58.418 194.156 C58.418 195.146 58.418 196.136 58.418 197.156 C57.849 197.448 57.281 197.739 56.695 198.039 C52.786 200.114 49.279 202.117 46.043 205.156 C34.746 215.238 17.95 217.563 3.418 218.156 C3.418 211.226 3.418 204.296 3.418 197.156 C8.368 196.166 8.368 196.166 13.418 195.156 C13.418 195.486 13.418 195.816 13.418 196.156 C19.426 195.894 22.865 195.35 27.418 191.156 C30.866 188.91 34.299 186.815 38.418 186.156 C38.418 185.496 38.418 184.836 38.418 184.156 C39.408 184.156 40.398 184.156 41.418 184.156 C41.645 183.599 41.872 183.043 42.105 182.469 C43.788 179.504 45.954 177.503 48.418 175.156 C49.078 174.476 49.738 173.795 50.418 173.094 C52.418 171.156 52.418 171.156 55.043 169.406 C57.938 166.664 58.221 164.784 58.945 160.98 C59.538 158.694 60.741 157.754 62.418 156.156 C62.19 153.993 62.19 153.993 61.418 152.156 C62.738 151.496 64.058 150.836 65.418 150.156 C65.418 147.516 65.418 144.876 65.418 142.156 C65.088 142.156 64.758 142.156 64.418 142.156 C64.434 141.421 64.449 140.686 64.466 139.928 C64.529 136.546 64.567 133.164 64.605 129.781 C64.631 128.625 64.656 127.469 64.682 126.277 C64.802 112.071 60.393 103.084 51.848 92.113 C50.418 90.156 50.418 90.156 49.051 87.645 C47.163 84.767 45.289 83.403 42.418 81.531 C37.633 78.384 37.633 78.384 36.011 76.666 C34.258 75.004 32.774 74.272 30.547 73.359 C29.808 73.04 29.068 72.72 28.307 72.391 C26.765 71.738 25.218 71.097 23.666 70.469 C19.059 68.448 16.362 66.682 14.159 62.088 C12.862 58.707 11.889 55.284 10.98 51.781 C6.885 37.203 -0.887 26.711 -13.582 18.156 C-13.582 17.496 -13.582 16.836 -13.582 16.156 C-14.531 15.929 -15.48 15.702 -16.457 15.469 C-19.709 14.566 -22.437 13.21 -25.395 11.594 C-30.57 8.955 -34.819 8.265 -40.582 8.156 C-41.813 8.118 -43.044 8.079 -44.312 8.039 C-61.49 7.616 -61.49 7.616 -76.68 14.719 C-80.516 17.617 -83.793 18.761 -88.688 18.68 C-94.002 17.719 -98.759 15.272 -103.617 12.98 C-118.661 5.954 -134.719 6.744 -150.395 12.344 C-156.414 14.85 -161.465 18.15 -166.582 22.156 C-167.634 22.919 -168.686 23.683 -169.77 24.469 C-175.266 29.721 -179.498 36.217 -182.582 43.156 C-183.078 44.206 -183.575 45.255 -184.086 46.336 C-185.467 49.54 -185.991 52.592 -186.455 56.056 C-187.14 60.493 -187.787 64.575 -191.28 67.652 C-196.653 71.083 -202.562 73.15 -208.582 75.156 C-208.582 74.496 -208.582 73.836 -208.582 73.156 C-211.626 74.817 -211.626 74.817 -212.527 77.129 C-213.819 79.613 -215.023 80.267 -217.457 81.594 C-221.047 83.734 -223.179 85.669 -225.582 89.156 C-226.127 89.901 -226.673 90.646 -227.234 91.414 C-238.345 106.776 -242.185 124.195 -240.582 143.156 C-238.837 153.035 -234.202 160.971 -228.582 169.156 C-227.747 170.411 -227.747 170.411 -226.895 171.691 C-222.456 177.912 -216.903 181.957 -210.582 186.156 C-209.134 187.197 -209.134 187.197 -207.656 188.258 C-204.419 190.257 -201.625 191.245 -197.957 192.219 C-196.138 192.71 -196.138 192.71 -194.281 193.211 C-189.8 194.356 -185.314 195.479 -180.812 196.543 C-178.582 197.156 -178.582 197.156 -177.582 198.156 C-177.483 199.56 -177.451 200.968 -177.449 202.375 C-177.448 203.224 -177.447 204.074 -177.445 204.949 C-177.449 205.843 -177.453 206.736 -177.457 207.656 C-177.453 208.55 -177.449 209.443 -177.445 210.363 C-177.447 211.213 -177.448 212.062 -177.449 212.938 C-177.45 213.722 -177.451 214.506 -177.453 215.314 C-177.582 217.156 -177.582 217.156 -178.582 218.156 C-180.537 218.282 -182.498 218.332 -184.457 218.344 C-185.527 218.358 -186.597 218.372 -187.699 218.387 C-190.582 218.156 -190.582 218.156 -193.582 216.156 C-195.236 215.673 -196.905 215.241 -198.582 214.844 C-203.687 213.515 -208.244 211.627 -212.992 209.352 C-215.37 208.254 -217.729 207.37 -220.207 206.531 C-221.321 206.077 -222.435 205.624 -223.582 205.156 C-223.912 204.166 -224.242 203.176 -224.582 202.156 C-226.573 201.464 -228.574 200.799 -230.582 200.156 C-232.457 198.656 -232.457 198.656 -233.582 197.156 C-233.582 196.496 -233.582 195.836 -233.582 195.156 C-234.572 194.826 -235.562 194.496 -236.582 194.156 C-236.582 193.496 -236.582 192.836 -236.582 192.156 C-237.14 191.95 -237.698 191.744 -238.273 191.531 C-241.425 189.654 -243.352 187.045 -245.52 184.156 C-245.962 183.571 -246.404 182.986 -246.86 182.383 C-250.425 177.564 -253.26 172.693 -255.582 167.156 C-256.243 165.611 -256.243 165.611 -256.918 164.035 C-261.261 153.379 -262.957 143.325 -262.895 131.844 C-262.893 130.849 -262.892 129.855 -262.891 128.83 C-262.788 120.952 -261.792 113.745 -259.582 106.156 C-258.922 106.156 -258.262 106.156 -257.582 106.156 C-257.479 105.228 -257.376 104.3 -257.27 103.344 C-256.521 99.875 -255.976 99.496 -253.582 97.156 C-252.594 95.397 -252.594 95.397 -251.828 93.469 C-251.531 92.77 -251.234 92.071 -250.928 91.352 C-250.478 90.265 -250.478 90.265 -250.02 89.156 C-249.417 87.718 -248.811 86.28 -248.203 84.844 C-247.939 84.208 -247.676 83.573 -247.404 82.918 C-246.582 81.156 -246.582 81.156 -244.582 78.156 C-243.922 78.156 -243.262 78.156 -242.582 78.156 C-242.396 77.476 -242.211 76.795 -242.02 76.094 C-239.972 71.91 -237.022 69.244 -233.582 66.156 C-232.956 65.588 -232.329 65.019 -231.684 64.434 C-228.183 61.49 -224.7 59.145 -220.555 57.219 C-219.84 56.885 -219.125 56.552 -218.388 56.209 C-216.963 55.562 -215.527 54.94 -214.078 54.348 C-210.161 52.59 -208.241 51.257 -206.684 47.164 C-206.29 45.836 -205.919 44.5 -205.582 43.156 C-205.234 42.021 -205.234 42.021 -204.879 40.863 C-204.698 40.238 -204.518 39.613 -204.332 38.969 C-201.812 31.329 -198.329 22.813 -191.582 18.156 C-191.314 17.393 -191.046 16.63 -190.77 15.844 C-189.268 12.445 -187.224 10.926 -184.371 8.625 C-182.402 7.063 -182.402 7.063 -180.145 4.656 C-168.057 -7.136 -152.351 -13.248 -135.582 -13.844 C-134.709 -13.879 -133.837 -13.915 -132.938 -13.952 C-106.124 -14.893 -106.124 -14.893 -99.781 -9.238 C-99.386 -8.778 -98.99 -8.318 -98.582 -7.844 C-97.592 -8.174 -96.602 -8.504 -95.582 -8.844 C-94.84 -8.349 -94.097 -7.854 -93.332 -7.344 C-90.426 -5.759 -88.984 -5.572 -85.77 -6.195 C-82.961 -7.028 -80.297 -8.121 -77.582 -9.219 C-52.312 -19.263 -22.212 -15.861 0 0 Z " fill="#FBFDFD" transform="translate(366.58203125,144.84375)"/>
<path d="M0 0 C6.055 -0.195 6.055 -0.195 8 0 C10 2 10 2 10 5 C12.31 5 14.62 5 17 5 C17 5.99 17 6.98 17 8 C21.29 8 25.58 8 30 8 C30 11.3 30 14.6 30 18 C36.93 18.495 36.93 18.495 44 19 C44 19.99 44 20.98 44 22 C45.65 22 47.3 22 49 22 C49.495 24.475 49.495 24.475 50 27 C50.66 27 51.32 27 52 27 C52 27.66 52 28.32 52 29 C54.64 29 57.28 29 60 29 C60.495 31.475 60.495 31.475 61 34 C64.3 34.33 67.6 34.66 71 35 C71 35.66 71 36.32 71 37 C72.98 37 74.96 37 77 37 C77 37.99 77 38.98 77 40 C77.66 40 78.32 40 79 40 C79 40.66 79 41.32 79 42 C80.65 42 82.3 42 84 42 C84 44.31 84 46.62 84 49 C86.31 49 88.62 49 91 49 C91 49.66 91 50.32 91 51 C95.29 51.33 99.58 51.66 104 52 C104 52.66 104 53.32 104 54 C104.66 54 105.32 54 106 54 C106 54.66 106 55.32 106 56 C106.66 56.33 107.32 56.66 108 57 C107.979 57.763 107.959 58.526 107.938 59.312 C107.871 62.102 107.871 62.102 109 65 C107.975 65.547 106.95 66.093 105.895 66.656 C102.051 68.856 98.908 71.481 95.688 74.5 C95.163 74.973 94.639 75.446 94.1 75.934 C91.426 78.406 89.332 80.578 88 84 C87.34 84 86.68 84 86 84 C85.731 84.675 85.461 85.351 85.184 86.047 C84.793 87.021 84.402 87.996 84 89 C83.537 90.16 83.074 91.32 82.598 92.516 C82.087 93.761 81.575 95.006 81.062 96.25 C80.81 96.887 80.558 97.524 80.299 98.18 C79.615 99.823 78.814 101.417 78 103 C76.515 103.495 76.515 103.495 75 104 C74.198 105.874 74.198 105.874 73.812 108.062 C73.654 108.796 73.495 109.529 73.332 110.285 C73.168 111.134 73.168 111.134 73 112 C72.34 112 71.68 112 71 112 C70.867 113.083 70.734 114.166 70.598 115.281 C69.921 120.693 69.179 126.096 68.438 131.5 C68.299 132.513 68.16 133.526 68.018 134.57 C67.679 137.047 67.34 139.523 67 142 C66.01 141.67 65.02 141.34 64 141 C64 139.35 64 137.7 64 136 C59.71 136 55.42 136 51 136 C51 135.01 51 134.02 51 133 C48.69 133 46.38 133 44 133 C44 131.68 44 130.36 44 129 C42.35 129 40.7 129 39 129 C39 128.01 39 127.02 39 126 C38.34 126 37.68 126 37 126 C36.505 122.535 36.505 122.535 36 119 C32.04 118.67 28.08 118.34 24 118 C24 117.34 24 116.68 24 116 C20.04 116 16.08 116 12 116 C12 115.01 12 114.02 12 113 C11.34 113 10.68 113 10 113 C10 110.69 10 108.38 10 106 C8.02 106 6.04 106 4 106 C4 104.68 4 103.36 4 102 C1.69 102 -0.62 102 -3 102 C-3 100.02 -3 98.04 -3 96 C-5.31 96 -7.62 96 -10 96 C-10 96.99 -10 97.98 -10 99 C-10.99 99 -11.98 99 -13 99 C-13 98.01 -13 97.02 -13 96 C-14.32 96 -15.64 96 -17 96 C-17 93.69 -17 91.38 -17 89 C-17.843 89.035 -18.686 89.07 -19.555 89.105 C-20.65 89.133 -21.746 89.16 -22.875 89.188 C-24.511 89.24 -24.511 89.24 -26.18 89.293 C-27.11 89.196 -28.041 89.1 -29 89 C-31.829 84.756 -30.871 81.865 -30 77 C-29.241 73.528 -28.333 70.11 -27.375 66.688 C-27.109 65.732 -26.843 64.776 -26.57 63.792 C-20.215 41.38 -11.316 20.35 0 0 Z " fill="#4EAED6" transform="translate(36,139)"/>
<path d="M0 0 C0.66 0 1.32 0 2 0 C3.158 3.473 3.069 6.361 3 10 C3.66 10 4.32 10 5 10 C5.495 12.475 5.495 12.475 6 15 C9.96 15 13.92 15 18 15 C18 16.32 18 17.64 18 19 C18.99 19 19.98 19 21 19 C21 21.31 21 23.62 21 26 C19.68 25.67 18.36 25.34 17 25 C16.67 26.32 16.34 27.64 16 29 C15.34 29 14.68 29 14 29 C14 29.99 14 30.98 14 32 C17.96 32 21.92 32 26 32 C26 31.01 26 30.02 26 29 C27.32 29 28.64 29 30 29 C30 29.99 30 30.98 30 32 C33.3 32 36.6 32 40 32 C40 32.99 40 33.98 40 35 C40.99 35 41.98 35 43 35 C43 36.32 43 37.64 43 39 C45.31 39 47.62 39 50 39 C50 39.99 50 40.98 50 42 C52.64 42 55.28 42 58 42 C58 42.99 58 43.98 58 45 C59.98 45.495 59.98 45.495 62 46 C62 46.99 62 47.98 62 49 C63.65 49 65.3 49 67 49 C67.495 53.95 67.495 53.95 68 59 C68.66 59 69.32 59 70 59 C70 56.69 70 54.38 70 52 C73.3 52 76.6 52 80 52 C80 54.31 80 56.62 80 59 C84.62 59 89.24 59 94 59 C94 63.29 94 67.58 94 72 C94.99 72 95.98 72 97 72 C96.418 78.683 95.182 84.859 93.375 91.312 C93.109 92.268 92.843 93.224 92.57 94.208 C86.673 115.004 78.938 135.297 68 154 C65.36 153.67 62.72 153.34 60 153 C60 151.68 60 150.36 60 149 C58.35 149 56.7 149 55 149 C55 148.34 55 147.68 55 147 C54.34 147 53.68 147 53 147 C53 146.34 53 145.68 53 145 C50.69 144.67 48.38 144.34 46 144 C46 142.68 46 141.36 46 140 C43.69 140 41.38 140 39 140 C39 139.01 39 138.02 39 137 C38.01 137 37.02 137 36 137 C36 136.34 36 135.68 36 135 C32.7 134.34 29.4 133.68 26 133 C26 132.01 26 131.02 26 130 C23.69 130 21.38 130 19 130 C19 127.69 19 125.38 19 123 C18.278 123.062 17.556 123.124 16.812 123.188 C13.438 122.963 11.694 122.001 9 120 C9 119.34 9 118.68 9 118 C6.69 117.67 4.38 117.34 2 117 C2 115.68 2 114.36 2 113 C-1.3 113 -4.6 113 -8 113 C-8 111.35 -8 109.7 -8 108 C-8.598 107.856 -9.196 107.711 -9.812 107.562 C-11.562 107.113 -13.287 106.571 -15 106 C-15 105.01 -15 104.02 -15 103 C-18.3 103 -21.6 103 -25 103 C-25 102.01 -25 101.02 -25 100 C-25.99 100 -26.98 100 -28 100 C-28 98.68 -28 97.36 -28 96 C-29.093 96.021 -30.186 96.041 -31.312 96.062 C-35 96 -35 96 -38 95 C-38 94.34 -38 93.68 -38 93 C-38.99 93 -39.98 93 -41 93 C-39.681 88.815 -38.253 87.032 -34.562 84.688 C-33.78 84.176 -32.998 83.664 -32.191 83.137 C-30 82 -30 82 -27 82 C-27 81.01 -27 80.02 -27 79 C-25.515 78.01 -25.515 78.01 -24 77 C-23.03 75.318 -23.03 75.318 -22.25 73.375 C-19.974 68.52 -16.662 64.868 -13 61 C-12.34 61.33 -11.68 61.66 -11 62 C-10.818 61.362 -10.636 60.724 -10.449 60.066 C-10.198 59.24 -9.946 58.414 -9.688 57.562 C-9.444 56.739 -9.2 55.915 -8.949 55.066 C-8.636 54.384 -8.323 53.703 -8 53 C-7.01 52.67 -6.02 52.34 -5 52 C-4.67 49.03 -4.34 46.06 -4 43 C-3.34 43 -2.68 43 -2 43 C-1.867 42.131 -1.734 41.262 -1.598 40.367 C-1.421 39.215 -1.244 38.062 -1.062 36.875 C-0.888 35.738 -0.714 34.601 -0.535 33.43 C-0.2 31.279 0.161 29.132 0.559 26.992 C1.868 18.116 1.144 8.867 0 0 Z M97 66 C97.33 66 97.66 66 98 66 C98 67.98 98 69.96 98 72 C97.67 72 97.34 72 97 72 C97 70.02 97 68.04 97 66 Z " fill="#5FDCE7" transform="translate(452,260)"/>
<path d="M0 0 C20.514 -0.093 41.028 -0.164 61.543 -0.207 C71.068 -0.228 80.593 -0.256 90.118 -0.302 C98.419 -0.342 106.721 -0.367 115.022 -0.376 C119.418 -0.382 123.814 -0.394 128.21 -0.423 C132.348 -0.45 136.485 -0.458 140.623 -0.452 C142.142 -0.454 143.66 -0.461 145.179 -0.477 C147.253 -0.497 149.326 -0.492 151.4 -0.481 C152.561 -0.485 153.722 -0.488 154.917 -0.492 C158.66 0.105 160.312 1.381 163 4 C166.753 11.506 165.193 23.708 165.312 31.938 C165.342 33.027 165.372 34.117 165.403 35.24 C165.448 41.462 165.271 45.316 161 50 C158.604 51.198 157.098 51.138 154.422 51.158 C152.973 51.173 152.973 51.173 151.494 51.188 C150.43 51.194 149.365 51.199 148.269 51.205 C147.149 51.215 146.03 51.225 144.876 51.235 C141.142 51.267 137.407 51.292 133.672 51.316 C131.053 51.337 128.434 51.358 125.815 51.379 C120.29 51.424 114.765 51.464 109.24 51.503 C103.644 51.541 98.049 51.583 92.454 51.628 C91.775 51.633 91.095 51.639 90.396 51.644 C89.029 51.655 87.663 51.666 86.296 51.677 C73.753 51.777 61.21 51.859 48.667 51.927 C41.992 51.966 35.319 52.029 28.645 52.127 C25.041 52.178 21.436 52.215 17.831 52.249 C16.228 52.267 14.625 52.293 13.022 52.327 C10.879 52.371 8.738 52.392 6.595 52.406 C4.845 52.433 4.845 52.433 3.06 52.461 C-0.684 51.897 -2.319 50.618 -5 48 C-6.683 44.634 -6.163 40.828 -6.168 37.125 C-6.171 36.245 -6.175 35.364 -6.178 34.458 C-6.183 32.595 -6.185 30.732 -6.185 28.869 C-6.187 26.012 -6.206 23.154 -6.225 20.297 C-6.228 18.49 -6.23 16.682 -6.23 14.875 C-6.238 14.017 -6.245 13.158 -6.252 12.274 C-6.229 6.229 -6.229 6.229 -4 4 C-3.01 3.67 -2.02 3.34 -1 3 C-0.67 2.01 -0.34 1.02 0 0 Z " fill="#FCFDFD" transform="translate(200,244)"/>
<path d="M0 0 C20.94 -0.047 41.88 -0.082 62.82 -0.104 C72.542 -0.114 82.265 -0.128 91.987 -0.151 C100.459 -0.171 108.931 -0.184 117.403 -0.188 C121.891 -0.191 126.379 -0.197 130.866 -0.211 C135.088 -0.225 139.309 -0.229 143.53 -0.226 C145.082 -0.227 146.633 -0.231 148.185 -0.238 C150.299 -0.248 152.413 -0.246 154.527 -0.241 C155.712 -0.242 156.896 -0.244 158.116 -0.246 C161 0 161 0 164 2 C164.304 5.041 164.42 7.875 164.398 10.918 C164.403 12.254 164.403 12.254 164.407 13.617 C164.409 15.506 164.404 17.395 164.391 19.283 C164.375 22.159 164.391 25.033 164.41 27.908 C164.408 29.745 164.404 31.581 164.398 33.418 C164.405 34.272 164.411 35.127 164.417 36.007 C164.354 41.376 163.726 45.317 161 50 C157.674 51.312 154.242 51.131 150.706 51.14 C148.765 51.149 148.765 51.149 146.785 51.158 C145.353 51.159 143.921 51.16 142.489 51.161 C140.979 51.166 139.469 51.171 137.959 51.176 C133.86 51.189 129.761 51.196 125.662 51.2 C123.101 51.203 120.54 51.207 117.979 51.212 C109.966 51.225 101.954 51.235 93.941 51.239 C84.691 51.243 75.441 51.261 66.191 51.29 C59.041 51.312 51.89 51.322 44.739 51.323 C40.468 51.324 36.197 51.33 31.927 51.348 C27.91 51.364 23.894 51.366 19.878 51.358 C18.405 51.357 16.931 51.361 15.458 51.371 C13.446 51.384 11.433 51.376 9.421 51.367 C7.732 51.37 7.732 51.37 6.009 51.372 C2.615 50.952 0.732 50.025 -2 48 C-3.708 44.583 -3.267 40.67 -3.352 36.906 C-3.375 36.004 -3.398 35.101 -3.422 34.172 C-3.469 32.262 -3.515 30.352 -3.558 28.442 C-3.625 25.512 -3.702 22.582 -3.781 19.652 C-3.826 17.799 -3.87 15.947 -3.914 14.094 C-3.938 13.214 -3.962 12.333 -3.986 11.426 C-4.115 5.23 -4.115 5.23 -3 3 C-2.34 3 -1.68 3 -1 3 C-0.67 2.01 -0.34 1.02 0 0 Z " fill="#FCFDFD" transform="translate(198,358)"/>
<path d="M0 0 C1.208 0.001 2.417 0.002 3.662 0.003 C4.333 0.002 5.003 0.001 5.694 0 C7.957 -0.001 10.221 0.004 12.484 0.01 C14.1 0.01 15.716 0.01 17.332 0.009 C21.732 0.009 26.133 0.015 30.533 0.022 C35.127 0.028 39.721 0.028 44.315 0.03 C53.02 0.033 61.725 0.041 70.43 0.051 C80.338 0.062 90.246 0.068 100.154 0.073 C120.541 0.083 140.929 0.101 161.316 0.123 C164.69 6.679 164.69 6.679 164.736 10.213 C164.752 10.957 164.767 11.702 164.784 12.468 C164.784 13.253 164.784 14.037 164.784 14.846 C164.792 15.669 164.8 16.492 164.808 17.34 C164.818 19.072 164.821 20.804 164.817 22.536 C164.816 25.182 164.857 27.824 164.902 30.469 C164.907 32.157 164.91 33.845 164.909 35.533 C164.926 36.32 164.942 37.106 164.959 37.917 C164.95 38.658 164.941 39.399 164.931 40.162 C164.933 40.808 164.935 41.454 164.937 42.12 C163.92 45.399 161.911 46.948 159.316 49.123 C156.202 49.738 156.202 49.738 152.64 49.724 C151.983 49.729 151.325 49.733 150.647 49.737 C148.451 49.745 146.257 49.718 144.061 49.691 C142.484 49.689 140.906 49.69 139.329 49.693 C135.053 49.694 130.777 49.665 126.5 49.63 C122.029 49.599 117.558 49.596 113.087 49.59 C104.623 49.574 96.159 49.533 87.694 49.483 C78.057 49.427 68.42 49.4 58.783 49.375 C38.96 49.322 19.138 49.234 -0.684 49.123 C-1.179 47.638 -1.179 47.638 -1.684 46.123 C-2.344 46.123 -3.004 46.123 -3.684 46.123 C-3.71 39.733 -3.727 33.342 -3.739 26.952 C-3.744 24.776 -3.751 22.6 -3.76 20.425 C-3.772 17.305 -3.778 14.185 -3.782 11.064 C-3.787 10.085 -3.792 9.106 -3.798 8.097 C-3.798 7.196 -3.798 6.296 -3.798 5.367 C-3.8 4.57 -3.802 3.773 -3.805 2.952 C-3.608 -0.038 -3.012 0.138 0 0 Z " fill="#FDFDFD" transform="translate(199.6842966079712,301.8769521713257)"/>
<path d="M0 0 C0.66 0 1.32 0 2 0 C1.67 0.99 1.34 1.98 1 3 C0.34 2.67 -0.32 2.34 -1 2 C-0.67 1.34 -0.34 0.68 0 0 Z M1 4 C1.495 5.485 1.495 5.485 2 7 C2.784 7.144 3.567 7.289 4.375 7.438 C7 8 7 8 9 9 C9 10.65 9 12.3 9 14 C12.96 14 16.92 14 21 14 C21 14.99 21 15.98 21 17 C21.99 17 22.98 17 24 17 C24 17.66 24 18.32 24 19 C25.32 19 26.64 19 28 19 C28 19.66 28 20.32 28 21 C29.65 21 31.3 21 33 21 C33.495 24.96 33.495 24.96 34 29 C40.619 30.143 47.233 30.33 53.938 30.562 C55.098 30.606 56.259 30.649 57.455 30.693 C60.303 30.799 63.152 30.901 66 31 C66 31.33 66 31.66 66 32 C52.8 32.33 39.6 32.66 26 33 C25.67 34.32 25.34 35.64 25 37 C22.938 38.25 22.938 38.25 21 39 C20.876 44.605 20.786 50.209 20.725 55.815 C20.7 57.721 20.666 59.627 20.623 61.533 C20.562 64.276 20.534 67.018 20.512 69.762 C20.486 70.611 20.46 71.46 20.434 72.335 C20.433 73.135 20.433 73.936 20.432 74.76 C20.421 75.46 20.41 76.159 20.399 76.88 C21.407 80.434 23.051 81.816 26 84 C29.25 84.728 32.427 84.691 35.747 84.659 C36.723 84.67 37.699 84.68 38.705 84.691 C41.925 84.72 45.143 84.714 48.363 84.707 C50.598 84.72 52.833 84.735 55.068 84.753 C60.945 84.793 66.822 84.803 72.7 84.807 C78.699 84.816 84.698 84.854 90.697 84.889 C102.465 84.953 114.232 84.986 126 85 C126 85.33 126 85.66 126 86 C145.315 87.167 164.658 87.537 184 88 C184.33 88.66 184.66 89.32 185 90 C184.195 89.998 183.391 89.996 182.562 89.994 C162.991 89.95 143.42 89.917 123.848 89.896 C114.384 89.886 104.919 89.872 95.455 89.849 C87.206 89.829 78.957 89.816 70.709 89.812 C66.341 89.809 61.972 89.803 57.604 89.789 C53.493 89.775 49.382 89.771 45.271 89.774 C43.762 89.773 42.253 89.769 40.744 89.762 C38.683 89.752 36.623 89.754 34.562 89.759 C33.408 89.758 32.255 89.756 31.067 89.754 C27.582 89.881 27.582 89.881 23 92 C22.67 106.52 22.34 121.04 22 136 C21.67 136 21.34 136 21 136 C19.912 128.683 19.675 121.387 19.438 114 C19.394 112.748 19.351 111.497 19.307 110.207 C19.201 107.138 19.1 104.069 19 101 C17.68 105.95 16.36 110.9 15 116 C12.36 116 9.72 116 7 116 C7 116.66 7 117.32 7 118 C5.35 118 3.7 118 2 118 C1.505 114.535 1.505 114.535 1 111 C-0.32 111 -1.64 111 -3 111 C-3 110.01 -3 109.02 -3 108 C-3.99 108 -4.98 108 -6 108 C-6 106.68 -6 105.36 -6 104 C-6.66 104 -7.32 104 -8 104 C-8 103.34 -8 102.68 -8 102 C-9.65 102 -11.3 102 -13 102 C-13 100.68 -13 99.36 -13 98 C-17.95 98.495 -17.95 98.495 -23 99 C-23 97.68 -23 96.36 -23 95 C-27.62 95.33 -32.24 95.66 -37 96 C-36.505 95.01 -36.505 95.01 -36 94 C-35.01 94 -34.02 94 -33 94 C-33 93.01 -33 92.02 -33 91 C-33.66 91 -34.32 91 -35 91 C-35.66 90.01 -36.32 89.02 -37 88 C-39.244 87.772 -39.244 87.772 -41.125 90 C-41.744 90.66 -42.363 91.32 -43 92 C-50.052 83.387 -49.888 71.617 -49 61 C-48.035 52.931 -46.396 45.403 -43 38 C-42.707 37.325 -42.415 36.649 -42.113 35.953 C-38.272 27.783 -32.331 17.502 -23.938 13.562 C-20.625 11.8 -19.617 10.323 -18 7 C-16.515 7.495 -16.515 7.495 -15 8 C-12.165 6.841 -9.508 5.439 -6.789 4.031 C-3.663 2.875 -2.142 3.04 1 4 Z " fill="#4EAED6" transform="translate(174,211)"/>
<path d="M0 0 C8.91 0 17.82 0 27 0 C27.115 6.034 27.214 12.063 27.275 18.097 C27.3 20.148 27.334 22.2 27.377 24.251 C27.438 27.203 27.466 30.153 27.488 33.105 C27.514 34.02 27.54 34.935 27.566 35.877 C27.568 40.383 27.526 42.334 24.653 45.97 C23.778 46.64 22.902 47.31 22 48 C21.031 48.784 20.061 49.567 19.062 50.375 C16 52 16 52 13.188 52.188 C8.125 50.302 3.817 46.817 0 43 C-0.093 41.649 -0.117 40.293 -0.114 38.939 C-0.113 38.078 -0.113 37.218 -0.113 36.331 C-0.108 35.395 -0.103 34.46 -0.098 33.496 C-0.096 32.543 -0.095 31.59 -0.093 30.608 C-0.088 27.551 -0.075 24.494 -0.062 21.438 C-0.057 19.37 -0.053 17.303 -0.049 15.236 C-0.039 10.158 -0.019 5.079 0 0 Z " fill="#FBFDFD" transform="translate(289,417)"/>
<path d="M0 0 C0.577 0.227 1.155 0.454 1.75 0.688 C1.75 1.348 1.75 2.007 1.75 2.688 C2.451 2.914 3.152 3.141 3.875 3.375 C7.403 4.986 10.389 6.58 12.75 9.688 C13.573 12.996 13.451 16.19 13.336 19.582 C13.327 20.529 13.319 21.477 13.31 22.453 C13.277 25.47 13.201 28.484 13.125 31.5 C13.095 33.549 13.068 35.598 13.043 37.646 C12.977 42.661 12.873 47.674 12.75 52.688 C9.563 52.717 6.375 52.734 3.188 52.75 C2.292 52.758 1.397 52.767 0.475 52.775 C-4.55 52.794 -9.298 52.55 -14.25 51.688 C-14.448 45.674 -14.593 39.662 -14.689 33.646 C-14.73 31.601 -14.784 29.556 -14.854 27.512 C-14.951 24.567 -14.996 21.626 -15.031 18.68 C-15.093 17.315 -15.093 17.315 -15.156 15.923 C-15.161 9.681 -15.161 9.681 -12.556 6.84 C-10.517 5.3 -8.446 3.991 -6.25 2.688 C-5.55 2.133 -4.85 1.579 -4.128 1.008 C-2.25 -0.312 -2.25 -0.312 0 0 Z " fill="#F6FBFC" transform="translate(256.25,415.3125)"/>
<path d="M0 0 C0.667 1.333 1.333 2.667 2 4 C2.35 4.541 2.7 5.082 3.06 5.64 C4.422 9.06 4.226 12.391 4.16 16.012 C4.152 17.165 4.152 17.165 4.144 18.342 C4.127 20.79 4.095 23.239 4.062 25.688 C4.035 28.147 4.01 30.606 3.991 33.066 C3.979 34.595 3.961 36.124 3.938 37.653 C3.921 39.435 3.955 41.218 4 43 C6.148 45.148 10.912 44.402 13.897 44.53 C14.8 44.571 15.703 44.612 16.633 44.655 C25.637 45.055 34.642 45.32 43.652 45.527 C44.936 45.558 44.936 45.558 46.245 45.589 C68.291 46.11 90.34 46.325 112.39 46.532 C117.789 46.584 123.189 46.639 128.588 46.693 C139.059 46.799 149.529 46.901 160 47 C160 47.33 160 47.66 160 48 C140.007 48.07 120.015 48.123 100.022 48.155 C90.739 48.171 81.456 48.192 72.173 48.226 C64.083 48.256 55.992 48.276 47.902 48.282 C43.617 48.286 39.333 48.295 35.049 48.317 C31.016 48.338 26.984 48.344 22.951 48.339 C21.472 48.34 19.992 48.346 18.512 48.358 C16.491 48.373 14.469 48.367 12.448 48.361 C10.751 48.365 10.751 48.365 9.02 48.369 C5.618 47.953 3.737 47.031 1 45 C-0.708 41.583 -0.267 37.67 -0.352 33.906 C-0.375 33.004 -0.398 32.101 -0.422 31.172 C-0.469 29.262 -0.515 27.352 -0.558 25.442 C-0.625 22.512 -0.702 19.582 -0.781 16.652 C-0.826 14.799 -0.87 12.947 -0.914 11.094 C-0.938 10.214 -0.962 9.333 -0.986 8.426 C-1.115 2.23 -1.115 2.23 0 0 Z " fill="#6BDEE9" transform="translate(195,361)"/>
<path d="M0 0 C2.522 2.27 2.947 3.637 3.438 7 C3 10 3 10 1.375 12.312 C-1.58 14.412 -3.369 15 -7 15 C-9.875 13.625 -9.875 13.625 -12 11 C-12.413 7.954 -12.294 5.053 -12 2 C-7.6 -0.619 -4.96 -1.653 0 0 Z " fill="#4FAFD6" transform="translate(304,376)"/>
<path d="M0 0 C2.375 1.062 2.375 1.062 4 3 C4.562 6.375 4.562 6.375 4 10 C1.688 13.105 0.257 14.724 -3.562 15.562 C-6.896 14.793 -8.052 13.814 -10 11 C-10.568 7.025 -10.623 4.935 -8.375 1.562 C-5.302 -0.459 -3.618 -0.528 0 0 Z " fill="#51B1D7" transform="translate(227,319)"/>
<path d="M0 0 C0.667 1.333 1.333 2.667 2 4 C2.35 4.543 2.7 5.085 3.06 5.644 C4.416 9.042 4.226 12.343 4.16 15.941 C4.152 17.088 4.152 17.088 4.144 18.257 C4.127 20.692 4.095 23.127 4.062 25.562 C4.035 28.001 4.01 30.44 3.991 32.879 C3.979 34.395 3.962 35.911 3.938 37.426 C3.908 40.573 3.997 42.99 5 46 C3.063 45.625 3.063 45.625 1 45 C-0.708 41.583 -0.267 37.67 -0.352 33.906 C-0.375 33.004 -0.398 32.101 -0.422 31.172 C-0.469 29.262 -0.515 27.352 -0.558 25.442 C-0.625 22.512 -0.702 19.582 -0.781 16.652 C-0.826 14.799 -0.87 12.947 -0.914 11.094 C-0.938 10.214 -0.962 9.333 -0.986 8.426 C-1.115 2.23 -1.115 2.23 0 0 Z " fill="#62DCE8" transform="translate(195,361)"/>
<path d="M0 0 C2.461 1.231 3.922 2.007 5.5 4.25 C6.062 6.625 6.062 6.625 5.5 9.25 C2.702 12.178 0.809 14.042 -3.25 14.688 C-5.5 14.25 -5.5 14.25 -7.5 12.25 C-8.02 10.191 -8.02 10.191 -8.312 7.812 C-8.422 7.03 -8.532 6.248 -8.645 5.441 C-8.5 3.25 -8.5 3.25 -7.199 1.527 C-4.604 -0.424 -3.136 -0.941 0 0 Z " fill="#61DDE8" transform="translate(335.5,262.75)"/>
<path d="M0 0 C2.457 2.695 2.942 4.52 3.375 8.125 C3 11 3 11 1.875 12.875 C-0.924 14.555 -2.798 14.457 -6 14 C-8.375 12.438 -8.375 12.438 -10 10 C-10.425 6.538 -10.639 4.165 -8.938 1.062 C-5.808 -0.654 -3.482 -0.497 0 0 Z " fill="#54B2D7" transform="translate(295,319)"/>
<path d="M0 0 C2.312 -0.363 2.312 -0.363 5 -0.312 C5.887 -0.309 6.774 -0.305 7.688 -0.301 C10 0 10 0 12 2 C12.438 5.375 12.438 5.375 12 9 C9.55 11.73 7.999 12.834 4.375 13.438 C2 13 2 13 0.25 11.938 C-1.628 9.026 -1.817 6.42 -2 3 C-1.34 2.01 -0.68 1.02 0 0 Z " fill="#53B1D6" transform="translate(261,264)"/>
<path d="M0 0 C0 0.99 0 1.98 0 3 C1.98 3.66 3.96 4.32 6 5 C5.515 11.43 5.515 11.43 3.25 13.938 C-0.479 15.699 -2.976 15.364 -6.812 14 C-7.534 13.67 -8.256 13.34 -9 13 C-9 11.02 -9 9.04 -9 7 C-8.34 7 -7.68 7 -7 7 C-6.897 6.402 -6.794 5.804 -6.688 5.188 C-5.475 1.329 -4.059 0 0 0 Z " fill="#63DEE8" transform="translate(301,261)"/>
<path d="M0 0 C2.564 2.902 3.971 4.763 4.062 8.688 C2.613 11.843 1.19 12.695 -2 14 C-5.217 13.923 -6.495 13.488 -8.812 11.25 C-10.232 8.56 -10.385 7.003 -10 4 C-7.369 0.054 -4.624 -0.789 0 0 Z " fill="#51B0D6" transform="translate(337,376)"/>
<path d="M0 0 C3.395 -0.37 5.889 -0.609 8.938 1.062 C10.639 4.165 10.425 6.538 10 10 C8.002 12.886 6.886 13.827 3.438 14.5 C1 14 1 14 -0.812 12.438 C-2.426 9.126 -2.331 6.639 -2 3 C-1.34 2.01 -0.68 1.02 0 0 Z " fill="#53B1D7" transform="translate(254,320)"/>
<path d="M0 0 C1.875 -0.363 1.875 -0.363 4 -0.312 C4.701 -0.309 5.402 -0.305 6.125 -0.301 C8 0 8 0 10 2 C10.195 4.164 10.195 4.164 10.125 6.625 C10.107 7.442 10.089 8.26 10.07 9.102 C10.036 10.041 10.036 10.041 10 11 C3.375 14.125 3.375 14.125 0 13 C-2.277 9.764 -2.33 6.874 -2 3 C-1.34 2.01 -0.68 1.02 0 0 Z " fill="#51B1D6" transform="translate(262,376)"/>
<path d="M0 0 C0.982 0.273 0.982 0.273 1.984 0.551 C8.187 2.259 14.406 3.855 20.664 5.352 C23 6 23 6 24 7 C24.087 8.416 24.107 9.836 24.098 11.254 C24.094 12.108 24.091 12.962 24.088 13.842 C24.08 14.74 24.071 15.637 24.062 16.562 C24.058 17.464 24.053 18.366 24.049 19.295 C24.037 21.53 24.021 23.765 24 26 C21.843 22.104 21.792 19.218 21.875 14.75 C21.893 13.487 21.911 12.223 21.93 10.922 C21.953 9.958 21.976 8.993 22 8 C20.962 8.028 19.925 8.057 18.855 8.086 C15.357 8.008 12.651 7.587 9.312 6.625 C8.401 6.37 7.49 6.115 6.551 5.852 C4.226 5.076 2.154 4.16 0 3 C0 2.01 0 1.02 0 0 Z " fill="#80E0EB" transform="translate(165,336)"/>
<path d="M0 0 C1.959 0.141 3.917 0.288 5.875 0.438 C7.511 0.559 7.511 0.559 9.18 0.684 C12 1 12 1 14 2 C14 2.66 14 3.32 14 4 C12.759 4.061 11.517 4.121 10.238 4.184 C8.596 4.268 6.954 4.353 5.312 4.438 C4.088 4.496 4.088 4.496 2.838 4.557 C-1.217 4.77 -5.02 5.171 -9 6 C-10.77 6.065 -12.542 6.086 -14.312 6.062 C-15.196 6.053 -16.079 6.044 -16.988 6.035 C-17.652 6.024 -18.316 6.012 -19 6 C-16.801 3.471 -15.324 2.477 -12 2 C-9.918 1.933 -7.833 1.915 -5.75 1.938 C-4.672 1.947 -3.595 1.956 -2.484 1.965 C-1.665 1.976 -0.845 1.988 0 2 C0 1.34 0 0.68 0 0 Z " fill="#60DCE7" transform="translate(235,127)"/>
<path d="M0 0 C1.65 0 3.3 0 5 0 C2.822 3.268 1.393 4.149 -2 6 C-2.928 6.557 -3.856 7.114 -4.812 7.688 C-8.964 9.397 -11.53 9.44 -16 9 C-18 7.625 -18 7.625 -19 6 C-19 5.34 -19 4.68 -19 4 C-12.73 3.34 -6.46 2.68 0 2 C0 1.34 0 0.68 0 0 Z " fill="#4FAED6" transform="translate(394,333)"/>
<path d="M0 0 C0.33 0 0.66 0 1 0 C2.053 7.629 2.29 15.165 2.35 22.855 C2.367 24.416 2.394 25.976 2.432 27.536 C2.487 29.809 2.509 32.081 2.523 34.355 C2.546 35.048 2.569 35.741 2.592 36.455 C2.575 40.448 2.098 41.885 -0.533 44.978 C-1.347 45.645 -2.161 46.312 -3 47 C-2.125 42.25 -2.125 42.25 -1 40 C-0.843 37.012 -0.741 34.045 -0.684 31.055 C-0.663 30.17 -0.642 29.285 -0.621 28.373 C-0.555 25.54 -0.496 22.708 -0.438 19.875 C-0.394 17.957 -0.351 16.039 -0.307 14.121 C-0.199 9.414 -0.098 4.707 0 0 Z " fill="#82E4EE" transform="translate(362,361)"/>
<path d="M0 0 C0.598 0.309 1.196 0.619 1.812 0.938 C4.09 2.102 4.09 2.102 7 3 C6.67 4.32 6.34 5.64 6 7 C3.532 5.848 1.952 4.952 0 3 C0 2.01 0 1.02 0 0 Z M6 7 C10.584 8.935 12.928 10.42 15 15 C15.688 17.812 15.688 17.812 16 20 C14.188 19.875 14.188 19.875 12 19 C10.438 16.188 10.438 16.188 9 13 C8.443 12.257 7.886 11.515 7.312 10.75 C6 9 6 9 6 7 Z " fill="#64DDE8" transform="translate(423,208)"/>
<path d="M0 0 C2 1.75 2 1.75 4 4 C4 5.32 4 6.64 4 8 C4.66 8 5.32 8 6 8 C6 9.65 6 11.3 6 13 C4.68 13 3.36 13 2 13 C0.243 8.496 -0.193 4.824 0 0 Z " fill="#3971B8" transform="translate(126,285)"/>
<path d="M0 0 C0.33 0 0.66 0 1 0 C2.279 5.704 3.999 13.616 0.883 18.891 C-0.5 20.25 -0.5 20.25 -3 22 C-2.125 17.25 -2.125 17.25 -1 15 C-0.768 12.454 -0.581 9.926 -0.438 7.375 C-0.394 6.669 -0.351 5.962 -0.307 5.234 C-0.201 3.49 -0.1 1.745 0 0 Z " fill="#60DDE8" transform="translate(362,386)"/>
<path d="M0 0 C0.99 0.33 1.98 0.66 3 1 C2.67 1.33 2.34 1.66 2 2 C1.558 6.149 1.558 6.149 3.312 9.75 C4.84 10.882 6.418 11.945 8 13 C6.312 13.75 6.312 13.75 4 14 C1.25 12.625 1.25 12.625 -1 10 C-1.479 6.952 -1.434 4.053 -1 1 C-0.67 0.67 -0.34 0.34 0 0 Z " fill="#67D9E7" transform="translate(293,377)"/>
<path d="M0 0 C0.66 0 1.32 0 2 0 C-1.1 10.091 -1.1 10.091 -4 14 C-4.66 14 -5.32 14 -6 14 C-5.67 12.35 -5.34 10.7 -5 9 C-4.34 9 -3.68 9 -3 9 C-2.876 8.257 -2.752 7.515 -2.625 6.75 C-2.045 4.199 -1.263 2.273 0 0 Z " fill="#61D7E5" transform="translate(117,229)"/>
<path d="M0 0 C-5.009 3.006 -8.327 3.293 -14 3 C-11.736 0.736 -10.629 0.482 -7.562 -0.188 C-6.78 -0.367 -5.998 -0.546 -5.191 -0.73 C-3 -1 -3 -1 0 0 Z " fill="#64DBE7" transform="translate(392,339)"/>
<path d="M0 0 C0.598 0.309 1.196 0.619 1.812 0.938 C4.09 2.102 4.09 2.102 7 3 C6.67 4.32 6.34 5.64 6 7 C3.532 5.848 1.952 4.952 0 3 C0 2.01 0 1.02 0 0 Z M6 7 C6.66 7.66 7.32 8.32 8 9 C7.34 9 6.68 9 6 9 C6 8.34 6 7.68 6 7 Z " fill="#66DCE6" transform="translate(423,208)"/>
<path d="M0 0 C1.938 0.625 1.938 0.625 4 2 C4.75 5.125 4.75 5.125 5 8 C3.68 7.67 2.36 7.34 1 7 C0.67 4.69 0.34 2.38 0 0 Z " fill="#60D0E3" transform="translate(268,265)"/>
<path d="M0 0 C0.66 0 1.32 0 2 0 C1.859 1.625 1.712 3.25 1.562 4.875 C1.481 5.78 1.4 6.685 1.316 7.617 C1 10 1 10 0 12 C-0.66 12 -1.32 12 -2 12 C-1.858 10.562 -1.711 9.125 -1.562 7.688 C-1.481 6.887 -1.4 6.086 -1.316 5.262 C-1 3 -1 3 0 0 Z " fill="#57B5D9" transform="translate(179,198)"/>
<path d="M0 0 C2.97 0.99 5.94 1.98 9 3 C9 3.99 9 4.98 9 6 C6.03 5.01 3.06 4.02 0 3 C0 2.01 0 1.02 0 0 Z " fill="#81DDEA" transform="translate(165,336)"/>
<path d="M0 0 C0.33 0.99 0.66 1.98 1 3 C-0.65 4.65 -2.3 6.3 -4 8 C-3.502 4.312 -2.899 2.395 0 0 Z " fill="#74DEE8" transform="translate(363,400)"/>
<path d="M0 0 C2.31 0 4.62 0 7 0 C7 0.66 7 1.32 7 2 C2.25 3.125 2.25 3.125 0 2 C0 1.34 0 0.68 0 0 Z " fill="#5ECFE2" transform="translate(375,337)"/>
<path d="M0 0 C2.062 0.438 2.062 0.438 4 1 C2.68 2.32 1.36 3.64 0 5 C-0.562 3.062 -0.562 3.062 -1 1 C-0.67 0.67 -0.34 0.34 0 0 Z M4 0 C6 1 6 1 6 1 Z " fill="#E7F7FA" transform="translate(197,302)"/>
<path d="M0 0 C1.32 1.32 2.64 2.64 4 4 C2.35 4 0.7 4 -1 4 C-1.33 3.34 -1.66 2.68 -2 2 C-1.34 2 -0.68 2 0 2 C0 1.34 0 0.68 0 0 Z " fill="#91E1EC" transform="translate(264,421)"/>
<path d="M0 0 C1.32 0 2.64 0 4 0 C3.67 1.65 3.34 3.3 3 5 C0 1.125 0 1.125 0 0 Z " fill="#4799CB" transform="translate(128,298)"/>
<path d="M0 0 C0.33 0.99 0.66 1.98 1 3 C-0.98 3.99 -0.98 3.99 -3 5 C-3 4.01 -3 3.02 -3 2 C-2.01 1.34 -1.02 0.68 0 0 Z " fill="#7AE0E9" transform="translate(199,244)"/>
<path d="M0 0 C0.99 0 1.98 0 3 0 C3 1.32 3 2.64 3 4 C2.01 4 1.02 4 0 4 C0 2.68 0 1.36 0 0 Z " fill="#5FDBE6" transform="translate(475,282)"/>
<path d="M0 0 C0.66 0 1.32 0 2 0 C2 0.99 2 1.98 2 3 C0.02 3.99 0.02 3.99 -2 5 C-1.125 1.125 -1.125 1.125 0 0 Z " fill="#7AE1EA" transform="translate(156,218)"/>
<path d="M0 0 C0.33 0.99 0.66 1.98 1 3 C0.01 3.33 -0.98 3.66 -2 4 C-1.34 2.68 -0.68 1.36 0 0 Z " fill="#71DEE9" transform="translate(113,239)"/>
<path d="M0 0 C0.66 0.66 1.32 1.32 2 2 C0.515 2.99 0.515 2.99 -1 4 C-0.67 2.68 -0.34 1.36 0 0 Z " fill="#3F84C1" transform="translate(262,377)"/>
<path d="M0 0 C0.66 0.66 1.32 1.32 2 2 C1.01 2.33 0.02 2.66 -1 3 C-0.67 2.01 -0.34 1.02 0 0 Z " fill="#90E7F0" transform="translate(427,301)"/>
</svg>