<svg version="1.1" xmlns="http://www.w3.org/2000/svg" viewBox="0 0 1200 1200" preserveAspectRatio="xMidYMid meet" xmlns:xlink="http://www.w3.org/1999/xlink" xmlns:svgjs="http://svgjs.dev/svgjs">
<path d="M0 0 C2.321 -0.004 4.643 -0.008 6.964 -0.014 C13.317 -0.026 19.669 -0.026 26.022 -0.023 C32.178 -0.022 38.334 -0.032 44.49 -0.041 C58.631 -0.06 72.771 -0.066 86.912 -0.067 C97.838 -0.068 108.764 -0.072 119.691 -0.078 C122.841 -0.08 125.992 -0.082 129.142 -0.083 C129.925 -0.084 130.709 -0.084 131.516 -0.085 C153.538 -0.097 175.56 -0.105 197.582 -0.104 C198.826 -0.104 198.826 -0.104 200.096 -0.104 C204.3 -0.104 208.505 -0.104 212.709 -0.103 C213.544 -0.103 214.379 -0.103 215.239 -0.103 C216.927 -0.103 218.616 -0.103 220.304 -0.103 C246.556 -0.102 272.807 -0.117 299.058 -0.144 C328.586 -0.175 358.115 -0.192 387.643 -0.19 C390.797 -0.19 393.95 -0.19 397.104 -0.19 C397.88 -0.19 398.657 -0.19 399.457 -0.19 C411.909 -0.19 424.361 -0.203 436.814 -0.22 C449.348 -0.237 461.881 -0.239 474.415 -0.226 C481.195 -0.219 487.974 -0.219 494.754 -0.236 C500.976 -0.252 507.198 -0.249 513.42 -0.232 C515.655 -0.229 517.891 -0.232 520.126 -0.243 C572.461 -0.489 619.732 19.831 657.066 56.267 C659.545 58.829 661.813 61.506 664.066 64.267 C664.955 65.309 665.845 66.351 666.734 67.392 C688.946 93.814 702.75 126.265 708.066 160.267 C708.264 161.527 708.461 162.786 708.664 164.084 C709.065 167.398 709.094 170.645 709.066 173.982 C708.633 184.967 708.633 184.967 711.676 195.236 C713.804 197.26 713.804 197.26 716.269 199.041 C720.014 202.022 722.689 205.527 725.566 209.33 C726.122 210.063 726.678 210.796 727.251 211.552 C737.905 225.898 745.315 241.709 750.316 258.83 C750.563 259.668 750.809 260.506 751.063 261.37 C755.051 275.634 755.356 289.367 755.327 304.065 C755.33 306.275 755.334 308.485 755.339 310.695 C755.349 316.744 755.347 322.793 755.342 328.842 C755.34 334.704 755.347 340.565 755.354 346.426 C755.369 359.889 755.371 373.351 755.369 386.813 C755.367 397.211 755.369 407.61 755.373 418.008 C755.373 419.504 755.374 421 755.375 422.496 C755.376 424.75 755.377 427.005 755.377 429.259 C755.386 450.21 755.39 471.161 755.386 492.111 C755.386 492.901 755.386 493.69 755.386 494.503 C755.385 498.503 755.384 502.503 755.383 506.502 C755.383 507.297 755.383 508.091 755.383 508.909 C755.382 510.516 755.382 512.122 755.381 513.728 C755.376 538.717 755.384 563.706 755.402 588.695 C755.423 616.795 755.434 644.895 755.43 672.995 C755.43 675.994 755.429 678.992 755.429 681.991 C755.429 682.729 755.429 683.468 755.429 684.228 C755.427 695.353 755.434 706.478 755.445 717.602 C755.457 730.261 755.458 742.92 755.446 755.579 C755.44 762.033 755.439 768.488 755.451 774.943 C755.462 780.86 755.459 786.776 755.445 792.693 C755.442 794.826 755.444 796.958 755.452 799.09 C755.508 815.017 754.106 829.974 749.379 845.267 C749.125 846.096 748.87 846.925 748.609 847.78 C742.865 865.792 733.396 881.965 721.066 896.267 C720.234 897.234 719.401 898.201 718.543 899.197 C695.297 925.628 661.136 942.902 626.066 946.267 C622.974 946.401 619.887 946.405 616.793 946.399 C615.434 946.402 615.434 946.402 614.049 946.405 C611.017 946.411 607.985 946.409 604.953 946.408 C602.756 946.41 600.559 946.413 598.363 946.417 C592.327 946.425 586.291 946.427 580.256 946.427 C573.746 946.429 567.235 946.437 560.725 946.444 C545.747 946.458 530.769 946.464 515.791 946.468 C508.385 946.471 500.978 946.474 493.572 946.478 C468.203 946.491 442.835 946.502 417.467 946.505 C415.875 946.505 414.283 946.505 412.692 946.506 C411.096 946.506 409.5 946.506 407.905 946.506 C404.704 946.507 401.503 946.507 398.302 946.508 C397.112 946.508 397.112 946.508 395.897 946.508 C370.177 946.512 344.456 946.528 318.735 946.551 C291.523 946.575 264.31 946.589 237.098 946.59 C234.108 946.591 231.118 946.591 228.128 946.591 C227.023 946.591 227.023 946.591 225.897 946.591 C214.073 946.592 202.25 946.603 190.426 946.618 C178.53 946.632 166.635 946.635 154.739 946.627 C148.3 946.624 141.861 946.624 135.423 946.639 C129.519 946.651 123.616 946.65 117.712 946.638 C115.586 946.636 113.459 946.639 111.333 946.648 C75.572 946.786 40.054 936.851 13.066 912.267 C12.265 911.308 11.463 910.349 10.637 909.361 C6.272 904.293 2.675 901.136 -4.191 900.486 C-8.298 900.307 -12.398 900.327 -16.508 900.342 C-57.634 900.41 -100.181 879.835 -129.832 852.217 C-131.713 850.472 -133.64 848.833 -135.621 847.205 C-139.485 843.896 -142.692 840.178 -145.934 836.267 C-146.358 835.772 -146.782 835.276 -147.219 834.765 C-170.051 808.029 -184.731 775.022 -189.934 740.267 C-190.187 738.583 -190.187 738.583 -190.446 736.865 C-191.124 731.363 -191.085 725.875 -191.088 720.339 C-191.092 719.152 -191.096 717.965 -191.101 716.743 C-191.112 713.466 -191.118 710.189 -191.123 706.913 C-191.129 703.372 -191.141 699.831 -191.151 696.291 C-191.176 687.751 -191.19 679.212 -191.203 670.672 C-191.207 668.258 -191.211 665.844 -191.215 663.43 C-191.24 648.423 -191.262 633.415 -191.275 618.407 C-191.278 614.936 -191.281 611.465 -191.284 607.994 C-191.285 607.132 -191.285 606.269 -191.286 605.381 C-191.299 591.405 -191.332 577.43 -191.374 563.455 C-191.416 549.09 -191.44 534.725 -191.445 520.36 C-191.448 512.301 -191.46 504.242 -191.493 496.184 C-191.521 489.322 -191.532 482.46 -191.521 475.598 C-191.516 472.101 -191.518 468.604 -191.543 465.106 C-191.566 461.305 -191.558 457.505 -191.542 453.704 C-191.556 452.612 -191.569 451.52 -191.584 450.395 C-191.471 439.333 -187.744 430.142 -180.031 422.17 C-171.469 414.405 -161.712 411.6 -150.238 411.924 C-139.631 413.027 -131.402 417.383 -124.188 425.146 C-117.444 433.471 -115.333 442.081 -115.428 452.617 C-115.419 454.267 -115.419 454.267 -115.41 455.951 C-115.394 459.617 -115.407 463.281 -115.42 466.946 C-115.414 469.584 -115.407 472.221 -115.398 474.858 C-115.381 480.529 -115.379 486.2 -115.387 491.871 C-115.397 500.093 -115.384 508.315 -115.364 516.536 C-115.333 529.908 -115.318 543.28 -115.315 556.652 C-115.314 557.451 -115.314 558.251 -115.314 559.074 C-115.314 559.874 -115.314 560.674 -115.313 561.499 C-115.31 572.816 -115.304 584.132 -115.292 595.449 C-115.291 596.641 -115.291 596.641 -115.29 597.858 C-115.276 611.169 -115.254 624.48 -115.228 637.79 C-115.213 645.978 -115.206 654.166 -115.209 662.354 C-115.211 667.979 -115.206 673.605 -115.196 679.231 C-115.191 682.464 -115.19 685.697 -115.196 688.93 C-115.255 725.593 -111.403 757.384 -86.934 786.267 C-86.429 786.879 -85.924 787.49 -85.404 788.119 C-81.33 792.945 -77.031 796.962 -71.996 800.767 C-71.263 801.323 -70.53 801.88 -69.775 802.452 C-61.157 808.813 -51.985 813.836 -41.691 816.867 C-40.352 817.263 -40.352 817.263 -38.985 817.667 C-37.97 817.964 -37.97 817.964 -36.934 818.267 C-37.038 788.016 -37.148 757.764 -37.265 727.512 C-37.279 723.942 -37.292 720.372 -37.306 716.803 C-37.309 716.092 -37.311 715.381 -37.314 714.649 C-37.358 703.135 -37.399 691.621 -37.438 680.106 C-37.479 668.295 -37.523 656.485 -37.571 644.674 C-37.597 638.038 -37.622 631.403 -37.643 624.767 C-37.662 618.526 -37.686 612.285 -37.714 606.043 C-37.724 603.749 -37.731 601.454 -37.737 599.16 C-37.745 596.034 -37.76 592.909 -37.775 589.784 C-37.776 588.869 -37.777 587.955 -37.778 587.013 C-37.784 586.176 -37.789 585.339 -37.795 584.477 C-37.798 583.755 -37.8 583.034 -37.803 582.29 C-37.94 580.175 -38.4 578.314 -38.934 576.267 C-39.025 574.194 -39.06 572.118 -39.061 570.043 C-39.063 568.764 -39.066 567.485 -39.069 566.168 C-39.067 564.753 -39.065 563.338 -39.063 561.924 C-39.064 560.432 -39.066 558.94 -39.068 557.449 C-39.073 553.399 -39.071 549.35 -39.068 545.3 C-39.065 541.063 -39.068 536.827 -39.069 532.59 C-39.071 525.474 -39.069 518.359 -39.064 511.244 C-39.059 503.017 -39.06 494.789 -39.066 486.562 C-39.07 479.499 -39.071 472.437 -39.068 465.374 C-39.067 461.155 -39.067 456.937 -39.07 452.718 C-39.073 448.752 -39.071 444.786 -39.065 440.82 C-39.064 439.364 -39.064 437.908 -39.066 436.451 C-39.069 434.465 -39.065 432.479 -39.061 430.492 C-39.06 428.824 -39.06 428.824 -39.06 427.122 C-38.95 424.642 -38.604 422.638 -37.934 420.267 C-37.819 418.376 -37.755 416.482 -37.725 414.588 C-37.706 413.446 -37.686 412.303 -37.666 411.127 C-37.608 405.89 -37.559 400.654 -37.529 395.417 C-37.511 392.665 -37.476 389.913 -37.426 387.16 C-37.354 383.175 -37.332 379.191 -37.313 375.205 C-37.271 373.381 -37.271 373.381 -37.228 371.52 C-37.247 363.793 -38.695 358.511 -42.545 351.793 C-46.466 344.66 -46.02 334.748 -44.145 327.014 C-42.863 323.419 -41.577 320.189 -39.386 317.05 C-37.595 313.619 -37.55 311.236 -37.527 307.377 C-37.508 306.022 -37.488 304.668 -37.468 303.313 C-37.463 302.611 -37.458 301.909 -37.453 301.186 C-37.345 288.997 -37.009 277.128 -33.934 265.267 C-33.742 264.501 -33.55 263.735 -33.352 262.946 C-23.337 223.92 1.59 192.292 36.137 171.814 C55.334 160.885 78.163 154.075 100.299 154.144 C101.212 154.143 102.125 154.142 103.065 154.141 C106.129 154.138 109.193 154.143 112.257 154.147 C114.474 154.147 116.691 154.146 118.908 154.145 C125.003 154.142 131.098 154.146 137.194 154.151 C143.091 154.155 148.988 154.154 154.885 154.154 C166.947 154.152 179.009 154.156 191.071 154.162 C203.014 154.168 214.957 154.171 226.9 154.173 C227.643 154.173 228.385 154.173 229.15 154.173 C232.922 154.173 236.693 154.173 240.464 154.174 C267.176 154.176 293.887 154.183 320.598 154.192 C346.548 154.201 372.497 154.208 398.447 154.212 C399.247 154.213 400.047 154.213 400.871 154.213 C408.904 154.214 416.937 154.215 424.969 154.217 C441.333 154.219 457.697 154.222 474.061 154.225 C474.813 154.225 475.566 154.225 476.341 154.225 C526.583 154.235 576.825 154.251 627.066 154.267 C626.604 152.684 626.139 151.101 625.672 149.519 C625.284 148.196 625.284 148.196 624.888 146.847 C623.731 143.215 622.221 139.852 620.504 136.455 C620.162 135.776 619.819 135.096 619.467 134.396 C615.789 127.358 611.155 121.332 606.066 115.267 C605.432 114.469 604.798 113.672 604.144 112.849 C587.045 92.206 559.611 79.58 533.266 76.992 C522.358 76.113 511.485 76.125 500.548 76.134 C498.381 76.132 496.213 76.13 494.046 76.127 C488.119 76.121 482.192 76.121 476.265 76.122 C469.861 76.122 463.457 76.117 457.054 76.112 C444.519 76.104 431.983 76.101 419.448 76.1 C409.255 76.1 399.062 76.098 388.869 76.095 C385.93 76.094 382.99 76.093 380.051 76.092 C379.32 76.092 378.59 76.092 377.837 76.091 C357.293 76.085 336.75 76.081 316.207 76.082 C315.046 76.082 315.046 76.082 313.862 76.082 C309.941 76.082 306.02 76.082 302.099 76.082 C301.32 76.082 300.541 76.082 299.739 76.082 C298.164 76.082 296.589 76.082 295.015 76.082 C270.522 76.083 246.03 76.075 221.538 76.062 C193.988 76.046 166.439 76.038 138.89 76.039 C135.949 76.039 133.008 76.039 130.066 76.039 C129.342 76.039 128.618 76.039 127.872 76.039 C116.252 76.039 104.632 76.032 93.012 76.024 C81.321 76.015 69.629 76.015 57.938 76.021 C51.612 76.024 45.287 76.024 38.961 76.016 C33.159 76.008 27.357 76.009 21.555 76.018 C19.468 76.019 17.38 76.018 15.293 76.012 C-22.788 75.916 -55.876 83.13 -83.934 110.267 C-109.546 136.68 -115.029 170.051 -115.102 205.444 C-115.11 208.229 -115.125 211.014 -115.144 213.799 C-115.196 221.706 -115.244 229.612 -115.26 237.518 C-115.27 242.386 -115.299 247.253 -115.341 252.12 C-115.353 253.959 -115.358 255.797 -115.356 257.636 C-115.343 271.815 -116.309 282.473 -126.641 293.107 C-135.407 301.366 -143.701 303.754 -155.618 303.693 C-166.752 303.337 -175.558 298.238 -183.258 290.334 C-188.015 284.468 -191.038 277.49 -191.081 269.924 C-191.088 269.061 -191.095 268.198 -191.103 267.309 C-191.105 266.37 -191.108 265.431 -191.111 264.464 C-191.117 263.468 -191.124 262.472 -191.131 261.446 C-191.15 258.142 -191.162 254.837 -191.172 251.533 C-191.176 250.397 -191.18 249.261 -191.184 248.091 C-191.205 242.059 -191.219 236.028 -191.229 229.996 C-191.24 223.828 -191.274 217.661 -191.314 211.493 C-191.34 206.702 -191.349 201.911 -191.352 197.12 C-191.357 194.851 -191.368 192.582 -191.387 190.313 C-191.8 137.1 -171.586 90.422 -134.934 52.267 C-132.375 49.788 -129.694 47.519 -126.934 45.267 C-126.406 44.828 -125.879 44.388 -125.336 43.935 C-116.948 36.949 -108.48 30.62 -98.934 25.267 C-98.254 24.878 -97.574 24.489 -96.874 24.089 C-78.079 13.41 -58.166 6.311 -36.934 2.267 C-35.566 2.007 -35.566 2.007 -34.171 1.741 C-22.797 -0.149 -11.5 -0.018 0 0 Z " fill="#8BE6F1" transform="translate(340.9336853027344,149.73257446289063)"></path>
<path d="M0 0 C2.321 -0.004 4.643 -0.008 6.964 -0.014 C13.317 -0.026 19.669 -0.026 26.022 -0.023 C32.178 -0.022 38.334 -0.032 44.49 -0.041 C58.631 -0.06 72.771 -0.066 86.912 -0.067 C97.838 -0.068 108.764 -0.072 119.691 -0.078 C122.841 -0.08 125.992 -0.082 129.142 -0.083 C129.925 -0.084 130.709 -0.084 131.516 -0.085 C153.538 -0.097 175.56 -0.105 197.582 -0.104 C198.826 -0.104 198.826 -0.104 200.096 -0.104 C204.3 -0.104 208.505 -0.104 212.709 -0.103 C213.544 -0.103 214.379 -0.103 215.239 -0.103 C216.927 -0.103 218.616 -0.103 220.304 -0.103 C246.556 -0.102 272.807 -0.117 299.058 -0.144 C328.586 -0.175 358.115 -0.192 387.643 -0.19 C390.797 -0.19 393.95 -0.19 397.104 -0.19 C397.88 -0.19 398.657 -0.19 399.457 -0.19 C411.909 -0.19 424.361 -0.203 436.814 -0.22 C449.348 -0.237 461.881 -0.239 474.415 -0.226 C481.195 -0.219 487.974 -0.219 494.754 -0.236 C500.976 -0.252 507.198 -0.249 513.42 -0.232 C515.655 -0.229 517.891 -0.232 520.126 -0.243 C572.461 -0.489 619.732 19.831 657.066 56.267 C659.545 58.829 661.813 61.506 664.066 64.267 C664.955 65.309 665.845 66.351 666.734 67.392 C688.85 93.7 702.986 126.328 708.066 160.267 C708.236 161.355 708.405 162.442 708.58 163.563 C709.33 169.658 709.211 175.772 709.207 181.905 C709.209 183.289 709.212 184.673 709.216 186.057 C709.224 189.847 709.226 193.637 709.226 197.426 C709.228 201.519 709.236 205.612 709.242 209.705 C709.256 218.647 709.262 227.589 709.267 236.532 C709.269 242.118 709.274 247.705 709.278 253.292 C709.29 268.771 709.3 284.251 709.304 299.73 C709.304 300.719 709.304 301.709 709.305 302.729 C709.305 303.721 709.305 304.713 709.305 305.736 C709.306 307.746 709.306 309.756 709.307 311.766 C709.307 312.764 709.307 313.761 709.307 314.788 C709.311 330.946 709.329 347.104 709.352 363.261 C709.376 379.864 709.388 396.466 709.389 413.069 C709.39 422.385 709.396 431.701 709.414 441.017 C709.429 448.95 709.435 456.882 709.426 464.815 C709.422 468.859 709.423 472.902 709.437 476.946 C709.45 480.655 709.449 484.364 709.437 488.072 C709.434 490.035 709.446 491.998 709.458 493.962 C709.382 507.672 706.669 517.768 697.476 528.045 C689.557 535.655 679.549 538.097 668.864 537.995 C658.735 537.46 650.44 533.24 643.441 525.83 C637.783 518.72 633.817 510.612 633.816 501.397 C633.811 500.241 633.806 499.084 633.801 497.892 C633.805 496.631 633.81 495.369 633.815 494.07 C633.813 492.709 633.81 491.348 633.806 489.987 C633.798 486.251 633.802 482.516 633.808 478.781 C633.813 474.75 633.806 470.719 633.8 466.688 C633.791 459.702 633.79 452.715 633.792 445.729 C633.795 435.607 633.783 425.485 633.767 415.363 C633.741 398.913 633.721 382.463 633.708 366.013 C633.707 365.028 633.706 364.044 633.705 363.029 C633.694 349.082 633.689 335.135 633.686 321.188 C633.686 319.717 633.686 319.717 633.685 318.217 C633.685 317.238 633.685 316.258 633.685 315.249 C633.681 298.876 633.662 282.503 633.63 266.13 C633.612 256.045 633.605 245.959 633.616 235.874 C633.623 228.949 633.614 222.024 633.595 215.099 C633.585 211.112 633.58 207.126 633.594 203.14 C633.658 182.545 633.254 163.182 624.066 144.267 C623.483 142.992 622.902 141.716 622.32 140.439 C617.951 131.068 612.701 123.175 606.066 115.267 C605.432 114.469 604.798 113.672 604.144 112.849 C587.045 92.206 559.611 79.58 533.266 76.992 C522.358 76.113 511.485 76.125 500.548 76.134 C498.381 76.132 496.213 76.13 494.046 76.127 C488.119 76.121 482.192 76.121 476.265 76.122 C469.861 76.122 463.457 76.117 457.054 76.112 C444.519 76.104 431.983 76.101 419.448 76.1 C409.255 76.1 399.062 76.098 388.869 76.095 C385.93 76.094 382.99 76.093 380.051 76.092 C379.32 76.092 378.59 76.092 377.837 76.091 C357.293 76.085 336.75 76.081 316.207 76.082 C315.046 76.082 315.046 76.082 313.862 76.082 C309.941 76.082 306.02 76.082 302.099 76.082 C301.32 76.082 300.541 76.082 299.739 76.082 C298.164 76.082 296.589 76.082 295.015 76.082 C270.522 76.083 246.03 76.075 221.538 76.062 C193.988 76.046 166.439 76.038 138.89 76.039 C135.949 76.039 133.008 76.039 130.066 76.039 C129.342 76.039 128.618 76.039 127.872 76.039 C116.252 76.039 104.632 76.032 93.012 76.024 C81.321 76.015 69.629 76.015 57.938 76.021 C51.612 76.024 45.287 76.024 38.961 76.016 C33.159 76.008 27.357 76.009 21.555 76.018 C19.468 76.019 17.38 76.018 15.293 76.012 C-22.788 75.916 -55.876 83.13 -83.934 110.267 C-109.546 136.68 -115.029 170.051 -115.102 205.444 C-115.11 208.229 -115.125 211.014 -115.144 213.799 C-115.196 221.706 -115.244 229.612 -115.26 237.518 C-115.27 242.386 -115.299 247.253 -115.341 252.12 C-115.353 253.959 -115.358 255.797 -115.356 257.636 C-115.343 271.815 -116.309 282.473 -126.641 293.107 C-135.407 301.366 -143.701 303.754 -155.618 303.693 C-166.752 303.337 -175.558 298.238 -183.258 290.334 C-188.015 284.468 -191.038 277.49 -191.081 269.924 C-191.088 269.061 -191.095 268.198 -191.103 267.309 C-191.105 266.37 -191.108 265.431 -191.111 264.464 C-191.117 263.468 -191.124 262.472 -191.131 261.446 C-191.15 258.142 -191.162 254.837 -191.172 251.533 C-191.176 250.397 -191.18 249.261 -191.184 248.091 C-191.205 242.059 -191.219 236.028 -191.229 229.996 C-191.24 223.828 -191.274 217.661 -191.314 211.493 C-191.34 206.702 -191.349 201.911 -191.352 197.12 C-191.357 194.851 -191.368 192.582 -191.387 190.313 C-191.8 137.1 -171.586 90.422 -134.934 52.267 C-132.375 49.788 -129.694 47.519 -126.934 45.267 C-126.406 44.828 -125.879 44.388 -125.336 43.935 C-116.948 36.949 -108.48 30.62 -98.934 25.267 C-98.254 24.878 -97.574 24.489 -96.874 24.089 C-78.079 13.41 -58.166 6.311 -36.934 2.267 C-35.566 2.007 -35.566 2.007 -34.171 1.741 C-22.797 -0.149 -11.5 -0.018 0 0 Z " fill="#0f0f0f" transform="translate(340.9336853027344,149.73257446289063)" class=""></path>
<path d="M0 0 C8.308 6.071 13.52 13.613 16.461 23.457 C16.983 27.252 17.001 30.98 16.966 34.806 C16.976 36.457 16.976 36.457 16.985 38.141 C17 41.806 16.988 45.471 16.975 49.136 C16.981 51.773 16.988 54.411 16.997 57.048 C17.013 62.719 17.015 68.39 17.008 74.061 C16.997 82.282 17.011 90.504 17.03 98.726 C17.062 112.098 17.077 125.47 17.08 138.842 C17.08 139.641 17.08 140.44 17.081 141.264 C17.081 142.064 17.081 142.864 17.081 143.689 C17.084 155.005 17.091 166.322 17.103 177.638 C17.104 178.831 17.104 178.831 17.105 180.047 C17.119 193.358 17.141 206.669 17.166 219.98 C17.182 228.168 17.189 236.355 17.186 244.543 C17.184 250.169 17.188 255.795 17.198 261.421 C17.204 264.654 17.205 267.887 17.199 271.12 C17.139 307.782 20.991 339.574 45.461 368.457 C45.966 369.068 46.47 369.679 46.99 370.309 C51.065 375.135 55.364 379.152 60.398 382.957 C61.135 383.515 61.872 384.074 62.63 384.649 C69.809 389.944 77.31 393.893 85.461 397.457 C86.4 397.884 86.4 397.884 87.358 398.319 C87.977 398.599 88.597 398.879 89.234 399.168 C89.772 399.412 90.31 399.656 90.865 399.908 C106.712 406.423 122.227 406.895 139.12 406.838 C141.386 406.841 143.653 406.846 145.92 406.852 C152.113 406.865 158.305 406.859 164.498 406.849 C170.502 406.843 176.506 406.851 182.51 406.859 C195.539 406.874 208.568 406.873 221.597 406.864 C232.999 406.857 244.402 406.855 255.804 406.858 C256.562 406.859 257.319 406.859 258.1 406.859 C261.176 406.86 264.252 406.861 267.328 406.862 C296.157 406.871 324.985 406.863 353.814 406.847 C379.401 406.833 404.988 406.834 430.575 406.848 C459.352 406.864 488.13 406.871 516.907 406.861 C519.977 406.86 523.048 406.859 526.118 406.858 C527.252 406.858 527.252 406.858 528.409 406.858 C539.801 406.854 551.193 406.858 562.586 406.866 C575.545 406.875 588.505 406.872 601.464 406.856 C608.073 406.848 614.681 406.845 621.29 406.855 C627.346 406.864 633.402 406.859 639.458 406.843 C641.642 406.84 643.826 406.841 646.01 406.849 C679.657 406.953 709.843 397.096 734.461 373.457 C755.134 351.528 765.766 323.154 765.735 293.196 C765.734 291.074 765.748 288.954 765.764 286.832 C765.81 280.812 765.835 274.792 765.842 268.771 C765.847 265.06 765.871 261.349 765.907 257.638 C765.917 256.241 765.919 254.843 765.914 253.446 C765.867 240.49 768.137 229.906 777.461 220.457 C785.956 213.118 794.584 209.86 805.801 210.238 C815.528 211.038 824.377 214.56 831.461 221.457 C840.215 232.243 841.93 241.248 841.859 254.965 C841.861 256.377 841.864 257.788 841.868 259.2 C841.872 262.157 841.866 265.114 841.852 268.071 C841.835 271.788 841.845 275.504 841.862 279.221 C841.93 296.17 841.32 312.702 838.461 329.457 C838.248 330.738 838.036 332.018 837.817 333.338 C832.072 365.641 815.773 396.114 793.648 420.082 C791.516 422.397 789.457 424.764 787.398 427.145 C783.693 431.301 779.782 434.95 775.461 438.457 C774.059 439.598 774.059 439.598 772.629 440.762 C734.593 471.132 690.867 482.61 642.951 482.604 C640.664 482.608 638.376 482.611 636.089 482.615 C629.825 482.625 623.562 482.629 617.298 482.632 C611.229 482.635 605.16 482.643 599.091 482.651 C582.844 482.672 566.597 482.683 550.35 482.691 C542.655 482.696 534.961 482.701 527.266 482.706 C500.896 482.724 474.526 482.739 448.157 482.746 C446.503 482.747 444.849 482.747 443.196 482.748 C442.376 482.748 441.556 482.748 440.711 482.749 C436.557 482.75 432.404 482.751 428.25 482.752 C427.425 482.752 426.601 482.753 425.752 482.753 C399.039 482.761 372.327 482.784 345.615 482.817 C317.334 482.851 289.053 482.871 260.773 482.874 C257.663 482.874 254.554 482.875 251.445 482.875 C250.297 482.876 250.297 482.876 249.125 482.876 C236.849 482.878 224.572 482.894 212.295 482.914 C199.937 482.935 187.579 482.94 175.221 482.931 C168.536 482.926 161.852 482.928 155.168 482.947 C149.033 482.965 142.898 482.964 136.763 482.948 C134.559 482.946 132.355 482.95 130.151 482.962 C111.015 483.06 91.874 481.178 73.586 475.207 C72.647 474.91 71.709 474.612 70.741 474.306 C45.305 466.01 22.146 452.647 2.562 434.406 C0.682 432.662 -1.245 431.022 -3.227 429.395 C-7.09 426.085 -10.297 422.368 -13.539 418.457 C-13.963 417.961 -14.387 417.465 -14.824 416.955 C-37.657 390.219 -52.337 357.212 -57.539 322.457 C-57.708 321.334 -57.877 320.212 -58.052 319.055 C-58.73 313.553 -58.69 308.065 -58.693 302.528 C-58.697 301.342 -58.702 300.155 -58.706 298.932 C-58.717 295.656 -58.724 292.379 -58.728 289.102 C-58.734 285.562 -58.746 282.021 -58.757 278.48 C-58.781 269.941 -58.796 261.401 -58.809 252.861 C-58.812 250.448 -58.816 248.034 -58.821 245.62 C-58.846 230.612 -58.868 215.604 -58.88 200.597 C-58.883 197.126 -58.886 193.655 -58.889 190.184 C-58.89 189.321 -58.891 188.459 -58.891 187.57 C-58.904 173.595 -58.937 159.62 -58.979 145.644 C-59.021 131.279 -59.045 116.914 -59.05 102.549 C-59.054 94.491 -59.065 86.432 -59.098 78.373 C-59.126 71.511 -59.137 64.65 -59.126 57.788 C-59.121 54.29 -59.124 50.793 -59.149 47.296 C-59.171 43.495 -59.163 39.695 -59.147 35.894 C-59.161 34.802 -59.175 33.71 -59.189 32.585 C-59.076 21.523 -55.35 12.332 -47.637 4.359 C-34.465 -7.586 -15.251 -9.268 0 0 Z " fill="#050505" transform="translate(208.5390625,567.54296875)" class=""></path>
<path d="M0 0 C31.485 -1.173 61.032 8.527 85.089 29.078 C86.053 29.892 87.017 30.705 88.011 31.543 C94.459 37.181 99.895 43.281 105.089 50.078 C105.755 50.929 106.422 51.78 107.108 52.656 C133.288 87.15 142.7 132.173 137.37 174.792 C131.414 213.321 111.37 251.431 80.175 275.309 C55.3 293.239 28.614 301.193 -1.911 300.078 C-2.95 300.047 -3.989 300.016 -5.06 299.984 C-29.74 298.502 -53.731 286.323 -71.911 270.078 C-72.884 269.248 -73.858 268.418 -74.86 267.562 C-82.607 260.85 -88.942 253.395 -94.911 245.078 C-95.304 244.533 -95.697 243.989 -96.102 243.428 C-107.22 227.75 -115.245 209.69 -119.911 191.078 C-120.224 189.84 -120.224 189.84 -120.544 188.577 C-127.89 157.995 -126.144 122.459 -114.911 93.078 C-114.453 91.871 -114.453 91.871 -113.986 90.639 C-107.463 73.77 -98.798 58.759 -86.911 45.078 C-86.104 44.127 -85.297 43.175 -84.466 42.195 C-78.19 34.961 -71.305 28.957 -63.584 23.304 C-62.073 22.197 -60.581 21.065 -59.091 19.93 C-42.101 7.684 -20.802 0.85 0 0 Z " fill="#18193F" transform="translate(527.9111328125,449.921875)"></path>
<path d="M0 0 C1.175 -0.006 2.351 -0.011 3.562 -0.017 C6.046 -0.027 8.531 -0.033 11.015 -0.037 C14.772 -0.047 18.528 -0.078 22.285 -0.109 C34.447 -0.164 46.061 -0.201 57.812 3.203 C59.034 3.556 59.034 3.556 60.28 3.916 C68.663 6.58 76.589 10.171 83.812 15.203 C84.533 15.702 85.254 16.201 85.996 16.715 C96.484 24.436 109.996 35.731 112.566 49.113 C113.728 58.976 112.605 67.709 106.75 75.953 C102.233 81.374 95.899 86 88.812 87.203 C77.994 87.904 69.537 87.663 61.125 80.453 C58.462 77.951 56.118 75.395 53.875 72.516 C49.851 67.701 44.273 64.791 38.097 63.742 C35.209 63.564 32.362 63.535 29.469 63.574 C27.894 63.571 27.894 63.571 26.288 63.567 C24.083 63.568 21.877 63.581 19.672 63.606 C16.321 63.641 12.972 63.627 9.621 63.607 C7.466 63.614 5.311 63.624 3.156 63.637 C2.167 63.632 1.179 63.627 0.16 63.622 C-8.42 63.765 -17.023 65.863 -23.188 72.203 C-29.146 80.42 -29.842 87.092 -29.188 97.203 C-28.016 103.257 -24.856 108.206 -20.188 112.203 C-13.848 116.135 -7.954 118.3 -0.468 118.361 C0.896 118.376 0.896 118.376 2.287 118.392 C3.261 118.399 4.235 118.407 5.238 118.414 C7.337 118.442 9.435 118.471 11.533 118.5 C14.813 118.541 18.092 118.578 21.372 118.604 C51.521 118.87 77.521 124.606 99.812 146.203 C116.556 163.68 125.32 185.47 126.25 209.578 C125.488 235.802 114.273 259.534 95.375 277.523 C79.347 290.968 58.254 300.151 37.232 300.396 C35.332 300.42 35.332 300.42 33.394 300.445 C32.023 300.456 30.652 300.467 29.281 300.477 C28.577 300.482 27.873 300.487 27.148 300.493 C23.406 300.519 19.664 300.539 15.922 300.553 C12.877 300.566 9.833 300.594 6.789 300.635 C-15.537 300.931 -37.798 300.581 -58.188 290.203 C-58.769 289.921 -59.351 289.639 -59.95 289.348 C-68.966 284.966 -76.741 280.004 -84.188 273.203 C-84.939 272.521 -85.691 271.839 -86.465 271.137 C-94.762 263.241 -99.14 255.521 -99.562 243.891 C-99.381 234.585 -96.497 227.724 -90.117 220.961 C-82.294 213.835 -75.157 212.828 -64.766 212.926 C-54.802 213.698 -48.4 218.775 -41.75 225.766 C-30.832 236.151 -17.689 237.344 -3.297 237.441 C-2.156 237.449 -1.016 237.458 0.159 237.466 C2.566 237.48 4.973 237.49 7.38 237.498 C9.828 237.51 12.276 237.53 14.723 237.56 C18.279 237.603 21.834 237.619 25.391 237.629 C26.471 237.646 27.552 237.664 28.665 237.682 C39.346 237.652 48.203 234.923 55.93 227.391 C61.385 221.052 62.553 214.688 62.254 206.418 C61.136 198.278 57.124 192.654 50.793 187.605 C42.83 181.967 35.066 182.065 25.668 182.027 C23.441 182.004 21.214 181.98 18.986 181.955 C15.509 181.92 12.032 181.891 8.555 181.877 C-22.609 181.732 -46.588 174.473 -69.188 152.203 C-69.845 151.559 -70.502 150.914 -71.18 150.25 C-80.413 140.464 -86.417 127.978 -90.188 115.203 C-90.665 113.687 -90.665 113.687 -91.152 112.141 C-97.061 90.794 -93.09 66.398 -82.523 47.176 C-68.574 24.468 -48.133 8.791 -22.371 1.895 C-14.858 0.263 -7.674 0.029 0 0 Z " fill="#18193F" transform="translate(778.1875,449.796875)"></path>
<path d="M0 0 C1.452 0.012 1.452 0.012 2.933 0.025 C18.976 0.402 32.289 6.93 43.879 17.945 C62.439 37.453 70.889 63.774 70.599 90.401 C69.883 114.264 61.406 138.743 44.68 156.164 C29.92 169.974 15.4 175.001 -4.5 174.711 C-10.816 174.485 -16.065 173.218 -21.75 170.438 C-22.728 169.963 -23.707 169.489 -24.715 169 C-44.067 158.639 -56.366 140.511 -63.062 119.938 C-63.658 117.78 -64.219 115.612 -64.75 113.438 C-65.048 112.241 -65.346 111.045 -65.652 109.812 C-71.6 82.624 -66.714 53.971 -51.75 30.438 C-39.514 13.159 -21.776 -0.241 0 0 Z " fill="#8BE6F1" transform="translate(533.75,512.5625)"></path>
<path d="M0 0 C7.457 7.136 10.665 15.969 10.892 26.123 C10.91 28.694 10.918 31.264 10.916 33.835 C10.922 35.257 10.928 36.678 10.936 38.1 C10.953 41.947 10.958 45.794 10.96 49.642 C10.961 52.05 10.965 54.458 10.971 56.867 C10.989 65.283 10.997 73.698 10.996 82.114 C10.994 89.937 11.015 97.759 11.047 105.581 C11.073 112.315 11.084 119.049 11.083 125.783 C11.082 129.797 11.088 133.811 11.109 137.825 C11.129 141.604 11.128 145.383 11.114 149.162 C11.111 151.193 11.128 153.225 11.145 155.256 C11.069 166.451 8.712 176.636 0.625 184.812 C-7.022 191.078 -14.536 193.574 -24.375 192.812 C-33.16 191.87 -39.917 187.846 -45.75 181.25 C-50.677 175.053 -52.494 170.518 -52.515 162.608 C-52.521 161.334 -52.527 160.059 -52.533 158.746 C-52.534 157.336 -52.535 155.926 -52.536 154.516 C-52.541 153.03 -52.546 151.543 -52.551 150.056 C-52.564 146.019 -52.571 141.982 -52.575 137.944 C-52.578 135.421 -52.582 132.897 -52.587 130.374 C-52.6 122.475 -52.61 114.577 -52.614 106.678 C-52.618 97.567 -52.636 88.455 -52.665 79.343 C-52.687 72.296 -52.697 65.249 -52.698 58.201 C-52.699 53.994 -52.705 49.787 -52.723 45.58 C-52.739 41.621 -52.741 37.663 -52.733 33.704 C-52.732 32.254 -52.736 30.804 -52.746 29.354 C-52.82 17.834 -51.231 10.477 -43.375 1.812 C-30.735 -9.22 -13.543 -10.967 0 0 Z " fill="#181A40" transform="translate(354.375,557.1875)"></path>
<path d="M0 0 C7.196 6.57 11.543 14.984 12.176 24.637 C12.495 36.288 10.616 44.697 2.98 53.895 C-4.509 61.613 -13.275 66.009 -24.062 66.312 C-33.88 65.929 -40.976 63.646 -49.062 58 C-49.713 57.569 -50.364 57.139 -51.035 56.695 C-57.351 52.003 -61.737 43.733 -63.062 36 C-63.894 24.53 -62.651 14.707 -56.062 5 C-40.025 -10.591 -18.24 -14.417 0 0 Z " fill="#181A3F" transform="translate(359.0625,459)"></path>
</svg>